<?xml version="1.0" encoding="utf-8" standalone="no"?>
<!DOCTYPE svg PUBLIC "-//W3C//DTD SVG 1.1//EN"
  "http://www.w3.org/Graphics/SVG/1.1/DTD/svg11.dtd">
<!-- Created with matplotlib (http://matplotlib.org/) -->
<svg height="134pt" version="1.1" viewBox="0 0 239 134" width="239pt" xmlns="http://www.w3.org/2000/svg" xmlns:xlink="http://www.w3.org/1999/xlink">
 <defs>
  <style type="text/css">
*{stroke-linecap:butt;stroke-linejoin:round;stroke-miterlimit:100000;}
  </style>
 </defs>
 <g id="figure_1">
  <g id="patch_1">
   <path d="M 0 134.199 
L 1 134.24296 
L 2 134.274909 
L 3 134.328056 
L 4 134.38318 
L 5 134.416984 
L 6 134.536463 
L 7 134.593662 
L 8 134.675322 
L 9 134.70393 
L 10 134.731958 
L 11 134.825109 
L 12 134.905207 
L 13 134.953859 
L 14 134.992446 
L 15 135.049109 
L 16 135.06982 
L 17 135.109287 
L 18 135.12392 
L 19 135.152178 
L 20 135.166465 
L 21 135.182902 
L 22 135.196619 
L 23 135.198762 
L 24 135.198723 
L 25 135.19607 
L 26 135.188773 
L 27 135.183733 
L 28 135.154179 
L 29 135.144224 
L 30 135.106488 
L 31 135.058783 
L 32 135.026602 
L 33 135.007137 
L 34 134.929672 
L 35 134.900883 
L 36 134.823878 
L 37 134.793471 
L 38 134.714237 
L 39 134.638398 
L 40 134.524666 
L 41 134.486107 
L 42 134.425414 
L 43 134.366342 
L 44 134.246405 
L 45 134.187736 
L 46 134.151876 
L 47 134.031424 
L 48 133.978494 
L 49 133.900569 
L 50 133.86962 
L 51 133.829068 
L 52 133.773873 
L 53 133.741583 
L 54 133.692632 
L 55 133.613323 
L 56 133.57455 
L 57 133.505115 
L 58 133.437293 
L 59 133.398778 
L 60 133.368466 
L 61 133.330323 
L 62 133.314689 
L 63 133.273736 
L 64 133.255454 
L 65 133.228037 
L 66 133.218066 
L 67 133.20324 
L 68 133.19932 
L 69 133.205904 
L 70 133.2186 
L 71 133.243165 
L 72 133.284846 
L 73 133.321855 
L 74 133.339094 
L 75 133.374703 
L 76 133.447365 
L 77 133.48552 
L 78 133.52596 
L 79 133.566335 
L 80 133.647007 
L 81 133.684066 
L 82 133.759577 
L 83 133.811602 
L 84 133.845907 
L 85 133.886309 
L 86 133.932491 
L 87 133.97525 
L 88 134.027181 
L 89 134.122635 
L 90 134.171164 
L 91 134.263137 
L 92 134.309485 
L 93 134.432563 
L 94 134.505277 
L 95 134.573211 
L 96 134.631451 
L 97 134.719177 
L 98 134.754097 
L 99 134.781258 
L 100 134.849263 
L 101 134.880101 
L 102 134.913868 
L 103 134.974707 
L 104 135.000707 
L 105 135.028591 
L 106 135.047184 
L 107 135.081241 
L 108 135.106207 
L 109 135.121107 
L 110 135.149473 
L 111 135.179626 
L 112 135.195059 
L 113 135.197706 
L 114 135.196233 
L 115 135.193274 
L 116 135.188413 
L 117 135.176925 
L 118 135.158115 
L 119 135.115831 
L 120 135.08565 
L 121 135.045486 
L 122 135.000183 
L 123 134.968064 
L 124 134.89206 
L 125 134.843364 
L 126 134.753774 
L 127 134.714487 
L 128 134.678076 
L 129 134.624196 
L 130 134.53538 
L 131 134.498111 
L 132 134.436383 
L 133 134.341204 
L 134 134.307138 
L 135 134.24625 
L 136 134.212907 
L 137 134.103215 
L 138 134.056301 
L 139 133.976409 
L 140 133.942984 
L 141 133.849557 
L 142 133.808695 
L 143 133.764699 
L 144 133.709558 
L 145 133.665339 
L 146 133.625254 
L 147 133.581515 
L 148 133.554627 
L 149 133.476388 
L 150 133.422769 
L 151 133.383261 
L 152 133.324779 
L 153 133.288207 
L 154 133.274585 
L 155 133.260489 
L 156 133.249776 
L 157 133.233616 
L 158 133.223951 
L 159 133.208052 
L 160 133.201639 
L 161 133.199127 
L 162 133.201145 
L 163 133.204247 
L 164 133.208713 
L 165 133.217438 
L 166 133.228937 
L 167 133.253472 
L 168 133.26439 
L 169 133.284686 
L 170 133.311542 
L 171 133.361412 
L 172 133.38109 
L 173 133.451243 
L 174 133.476318 
L 175 133.560674 
L 176 133.59294 
L 177 133.663471 
L 178 133.75331 
L 179 133.786064 
L 180 133.879538 
L 181 133.945405 
L 182 134.039903 
L 183 134.094643 
L 184 134.209285 
L 185 134.24853 
L 186 134.345401 
L 187 134.401674 
L 188 134.444853 
L 189 134.539784 
L 190 134.606348 
L 191 134.675309 
L 192 134.738168 
L 193 134.789669 
L 194 134.827634 
L 195 134.894667 
L 196 134.96232 
L 197 134.999131 
L 198 135.032373 
L 199 135.087557 
L 200 135.10394 
L 201 135.118684 
L 202 135.151091 
L 203 135.181833 
L 204 135.191909 
L 205 135.198338 
L 206 135.198488 
L 207 135.195341 
L 208 135.191653 
L 209 135.17146 
L 210 135.16108 
L 211 135.128733 
L 212 135.077755 
L 213 135.0534 
L 214 135.03331 
L 215 135.006571 
L 216 134.93633 
L 217 134.904306 
L 218 134.880319 
L 219 134.812136 
L 220 134.733228 
L 221 134.64223 
L 222 134.530658 
L 223 134.484509 
L 224 134.426441 
L 225 134.383385 
L 226 134.285955 
L 227 134.213928 
L 228 134.125909 
L 229 134.076672 
L 230 134.041764 
L 231 133.927141 
L 232 133.833978 
L 233 133.77406 
L 234 133.730818 
L 235 133.664208 
L 236 133.610156 
L 237 133.537329 
L 238 133.453891 
L 239.58 133.41265 
L 238.737079 133.199 
L 238.7153 132.199 
L 238.687678 131.199 
L 238.650812 130.199 
L 238.621659 129.199 
L 238.597771 128.199 
L 238.590409 127.199 
L 238.585191 126.199 
L 238.58248 125.199 
L 238.580003 124.199 
L 238.583771 123.199 
L 238.598369 122.199 
L 238.607442 121.199 
L 238.615403 120.199 
L 238.639808 119.199 
L 238.661466 118.199 
L 238.678037 117.199 
L 238.699254 116.199 
L 238.717726 115.199 
L 238.74183 114.199 
L 238.786485 113.199 
L 238.841146 112.199 
L 238.930212 111.199 
L 238.981751 110.199 
L 239.013095 109.199 
L 239.063718 108.199 
L 239.152259 107.199 
L 239.196583 106.199 
L 239.247522 105.199 
L 239.27753 104.199 
L 239.362011 103.199 
L 239.431014 102.199 
L 239.530255 101.199 
L 239.581115 100.199 
L 239.660125 99.199 
L 239.711221 98.199 
L 239.768292 97.199 
L 239.799688 96.199 
L 239.88101 95.199 
L 239.959671 94.199 
L 240.028659 93.199 
L 240.062711 92.199 
L 240.162853 91.199 
L 240.1953 90.199 
L 240.256777 89.199 
L 240.281114 88.199 
L 240.351797 87.199 
L 240.403831 86.199 
L 240.44725 85.199 
L 240.472275 84.199 
L 240.494775 83.199 
L 240.523746 82.199 
L 240.553713 81.199 
L 240.567397 80.199 
L 240.574297 79.199 
L 240.578665 78.199 
L 240.579858 77.199 
L 240.579837 76.199 
L 240.577423 75.199 
L 240.570572 74.199 
L 240.559479 73.199 
L 240.549872 72.199 
L 240.541504 71.199 
L 240.524035 70.199 
L 240.492199 69.199 
L 240.47422 68.199 
L 240.431019 67.199 
L 240.40957 66.199 
L 240.368649 65.199 
L 240.342069 64.199 
L 240.302052 63.199 
L 240.235998 62.199 
L 240.187244 61.199 
L 240.159465 60.199 
L 240.118342 59.199 
L 240.069434 58.199 
L 240.003577 57.199 
L 239.971383 56.199 
L 239.912503 55.199 
L 239.79257 54.199 
L 239.709882 53.199 
L 239.675826 52.199 
L 239.597453 51.199 
L 239.513363 50.199 
L 239.42103 49.199 
L 239.353877 48.199 
L 239.282584 47.199 
L 239.186594 46.199 
L 239.09165 45.199 
L 239.043596 44.199 
L 238.942799 43.199 
L 238.87678 42.199 
L 238.851452 41.199 
L 238.802498 40.199 
L 238.742135 39.199 
L 238.696233 38.199 
L 238.678276 37.199 
L 238.662984 36.199 
L 238.620573 35.199 
L 238.606342 34.199 
L 238.595593 33.199 
L 238.590145 32.199 
L 238.583515 31.199 
L 238.58005 30.199 
L 238.581411 29.199 
L 238.589196 28.199 
L 238.597889 27.199 
L 238.607188 26.199 
L 238.618125 25.199 
L 238.650961 24.199 
L 238.697093 23.199 
L 238.746031 22.199 
L 238.78883 21.199 
L 238.839437 20.199 
L 238.900956 19.199 
L 238.945316 18.199 
L 239.037511 17.199 
L 239.086692 16.199 
L 239.12175 15.199 
L 239.16299 14.199 
L 239.218125 13.199 
L 239.330524 12.199 
L 239.381621 11.199 
L 239.453554 10.199 
L 239.519047 9.199 
L 239.644571 8.199 
L 239.713955 7.199 
L 239.780814 6.199 
L 239.842351 5.199 
L 239.905884 4.199 
L 239.955759 3.199 
L 240.033754 2.199 
L 240.108976 1.199 
L 240.139436 0 
L 238.58 -0.644952 
L 237.58 -0.70129 
L 236.58 -0.733873 
L 235.58 -0.766806 
L 234.58 -0.827025 
L 233.58 -0.880689 
L 232.58 -0.92544 
L 231.58 -0.941491 
L 230.58 -0.971673 
L 229.58 -0.979747 
L 228.58 -0.987139 
L 227.58 -0.993672 
L 226.58 -0.999958 
L 225.58 -0.996346 
L 224.58 -0.986326 
L 223.58 -0.962427 
L 222.58 -0.951813 
L 221.58 -0.937846 
L 220.58 -0.893287 
L 219.58 -0.840492 
L 218.58 -0.814289 
L 217.58 -0.787425 
L 216.58 -0.727807 
L 215.58 -0.652872 
L 214.58 -0.592879 
L 213.58 -0.525675 
L 212.58 -0.431965 
L 211.58 -0.384092 
L 210.58 -0.352075 
L 209.58 -0.299072 
L 208.58 -0.253199 
L 207.58 -0.133281 
L 206.58 -0.050516 
L 205.58 -0.018799 
L 204.58 0.074163 
L 203.58 0.15687 
L 202.58 0.235125 
L 201.58 0.335715 
L 200.58 0.432493 
L 199.58 0.490142 
L 198.58 0.524745 
L 197.58 0.624664 
L 196.58 0.682529 
L 195.58 0.721103 
L 194.58 0.749885 
L 193.58 0.787221 
L 192.58 0.847375 
L 191.58 0.864345 
L 190.58 0.906819 
L 189.58 0.919781 
L 188.58 0.932344 
L 187.58 0.960576 
L 186.58 0.9724 
L 185.58 0.985485 
L 184.58 0.998746 
L 183.58 0.999904 
L 182.58 0.996475 
L 181.58 0.989607 
L 180.58 0.966936 
L 179.58 0.935673 
L 178.58 0.91415 
L 177.58 0.8617 
L 176.58 0.833176 
L 175.58 0.789107 
L 174.58 0.716651 
L 173.58 0.689249 
L 172.58 0.639627 
L 171.58 0.599969 
L 170.58 0.514144 
L 169.58 0.485466 
L 168.58 0.398682 
L 167.58 0.356302 
L 166.58 0.258475 
L 165.58 0.15581 
L 164.58 0.08983 
L 163.58 0.024011 
L 162.58 -0.040962 
L 161.58 -0.097293 
L 160.58 -0.129439 
L 159.58 -0.19628 
L 158.58 -0.284075 
L 157.58 -0.343611 
L 156.58 -0.399398 
L 155.58 -0.466047 
L 154.58 -0.495408 
L 153.58 -0.523679 
L 152.58 -0.575218 
L 151.58 -0.630528 
L 150.58 -0.671745 
L 149.58 -0.718347 
L 148.58 -0.779017 
L 147.58 -0.814563 
L 146.58 -0.866622 
L 145.58 -0.883939 
L 144.58 -0.899238 
L 143.58 -0.938024 
L 142.58 -0.953531 
L 141.58 -0.963042 
L 140.58 -0.978171 
L 139.58 -0.986805 
L 138.58 -0.992064 
L 137.58 -0.999994 
L 136.58 -0.999582 
L 135.58 -0.997631 
L 134.58 -0.991057 
L 133.58 -0.977185 
L 132.58 -0.969052 
L 131.58 -0.937703 
L 130.58 -0.912643 
L 129.58 -0.886023 
L 128.58 -0.854866 
L 127.58 -0.829206 
L 126.58 -0.796807 
L 125.58 -0.765209 
L 124.58 -0.693397 
L 123.58 -0.617591 
L 122.58 -0.588724 
L 121.58 -0.554886 
L 120.58 -0.49721 
L 119.58 -0.447355 
L 118.58 -0.370219 
L 117.58 -0.329554 
L 116.58 -0.247127 
L 115.58 -0.200549 
L 114.58 -0.137902 
L 113.58 -0.102467 
L 112.58 -0.053302 
L 111.58 0.072005 
L 110.58 0.19635 
L 109.58 0.278184 
L 108.58 0.330278 
L 107.58 0.433466 
L 106.58 0.464337 
L 105.58 0.536384 
L 104.58 0.599677 
L 103.58 0.691192 
L 102.58 0.758662 
L 101.58 0.797958 
L 100.58 0.848473 
L 99.58 0.904763 
L 98.58 0.925669 
L 97.58 0.94672 
L 96.58 0.959246 
L 95.58 0.971918 
L 94.58 0.98698 
L 93.58 0.993469 
L 92.58 0.999965 
L 91.58 0.998402 
L 90.58 0.994081 
L 89.58 0.988388 
L 88.58 0.972423 
L 87.58 0.935586 
L 86.58 0.920085 
L 85.58 0.895835 
L 84.58 0.854566 
L 83.58 0.835834 
L 82.58 0.813392 
L 81.58 0.773035 
L 80.58 0.716583 
L 79.58 0.684811 
L 78.58 0.617376 
L 77.58 0.552549 
L 76.58 0.487672 
L 75.58 0.455123 
L 74.58 0.416176 
L 73.58 0.357717 
L 72.58 0.309222 
L 71.58 0.225714 
L 70.58 0.191181 
L 69.58 0.072092 
L 68.58 0.034613 
L 67.58 -0.036123 
L 66.58 -0.106321 
L 65.58 -0.217582 
L 64.58 -0.257493 
L 63.58 -0.356553 
L 62.58 -0.401327 
L 61.58 -0.487913 
L 60.58 -0.562871 
L 59.58 -0.609002 
L 58.58 -0.641189 
L 57.58 -0.72301 
L 56.58 -0.770055 
L 55.58 -0.798554 
L 54.58 -0.819357 
L 53.58 -0.854727 
L 52.58 -0.88159 
L 51.58 -0.923837 
L 50.58 -0.96106 
L 49.58 -0.979784 
L 48.58 -0.994064 
L 47.58 -0.99843 
L 46.58 -0.999906 
L 45.58 -0.993848 
L 44.58 -0.975682 
L 43.58 -0.956553 
L 42.58 -0.943679 
L 41.58 -0.907182 
L 40.58 -0.882509 
L 39.58 -0.858168 
L 38.58 -0.831855 
L 37.58 -0.801719 
L 36.58 -0.761933 
L 35.58 -0.711794 
L 34.58 -0.641387 
L 33.58 -0.601887 
L 32.58 -0.51379 
L 31.58 -0.475163 
L 30.58 -0.398943 
L 29.58 -0.337721 
L 28.58 -0.252712 
L 27.58 -0.200418 
L 26.58 -0.103476 
L 25.58 -0.000916 
L 24.58 0.093737 
L 23.58 0.193987 
L 22.58 0.225556 
L 21.58 0.277274 
L 20.58 0.320925 
L 19.58 0.420155 
L 18.58 0.486309 
L 17.58 0.587155 
L 16.58 0.631495 
L 15.58 0.712642 
L 14.58 0.749444 
L 13.58 0.772044 
L 12.58 0.806997 
L 11.58 0.83155 
L 10.58 0.855069 
L 9.58 0.888114 
L 8.58 0.928498 
L 7.58 0.950445 
L 6.58 0.971441 
L 5.58 0.990024 
L 4.58 0.995979 
L 3.58 0.999984 
L 2.58 0.999423 
L 1.58 0.991537 
L 0 0.984486 
L 0.974108 1 
L 0.957659 2 
L 0.91477 3 
L 0.885285 4 
L 0.841554 5 
L 0.797274 6 
L 0.747405 7 
L 0.676604 8 
L 0.650635 9 
L 0.610467 10 
L 0.545673 11 
L 0.462727 12 
L 0.430143 13 
L 0.385926 14 
L 0.326099 15 
L 0.218666 16 
L 0.124628 17 
L 0.062436 18 
L -0.023384 19 
L -0.092581 20 
L -0.13605 21 
L -0.24701 22 
L -0.277534 23 
L -0.368659 24 
L -0.415831 25 
L -0.504506 26 
L -0.588698 27 
L -0.635334 28 
L -0.675212 29 
L -0.701697 30 
L -0.750775 31 
L -0.78196 32 
L -0.843762 33 
L -0.870243 34 
L -0.893526 35 
L -0.911002 36 
L -0.948519 37 
L -0.965651 38 
L -0.975026 39 
L -0.984568 40 
L -0.99539 41 
L -0.999973 42 
L -0.999206 43 
L -0.995853 44 
L -0.976643 45 
L -0.965528 46 
L -0.949765 47 
L -0.935499 48 
L -0.908571 49 
L -0.864578 50 
L -0.845137 51 
L -0.773993 52 
L -0.746081 53 
L -0.68507 54 
L -0.626988 55 
L -0.548978 56 
L -0.490533 57 
L -0.462868 58 
L -0.43005 59 
L -0.401366 60 
L -0.299843 61 
L -0.256862 62 
L -0.207233 63 
L -0.141608 64 
L -0.075359 65 
L 0.002931 66 
L 0.050828 67 
L 0.131991 68 
L 0.18858 69 
L 0.23665 70 
L 0.305135 71 
L 0.340955 72 
L 0.396389 73 
L 0.427933 74 
L 0.49465 75 
L 0.554834 76 
L 0.591421 77 
L 0.641202 78 
L 0.702247 79 
L 0.724754 80 
L 0.747612 81 
L 0.772157 82 
L 0.80215 83 
L 0.821149 84 
L 0.844415 85 
L 0.88824 86 
L 0.91808 87 
L 0.946706 88 
L 0.967677 89 
L 0.977456 90 
L 0.983854 91 
L 0.997227 92 
L 0.999991 93 
L 0.994611 94 
L 0.985821 95 
L 0.968174 96 
L 0.959306 97 
L 0.936552 98 
L 0.901645 99 
L 0.870477 100 
L 0.853758 101 
L 0.821925 102 
L 0.74862 103 
L 0.706719 104 
L 0.669295 105 
L 0.617842 106 
L 0.525173 107 
L 0.472882 108 
L 0.394893 109 
L 0.347832 110 
L 0.317526 111 
L 0.2354 112 
L 0.156832 113 
L 0.08228 114 
L 0.038698 115 
L -0.037243 116 
L -0.13609 117 
L -0.207893 118 
L -0.279964 119 
L -0.394259 120 
L -0.502357 121 
L -0.565182 122 
L -0.595925 123 
L -0.68075 124 
L -0.73293 125 
L -0.772492 126 
L -0.792446 127 
L -0.820711 128 
L -0.845137 129 
L -0.893159 130 
L -0.923586 131 
L -0.94697 132 
L -0.963632 133 
L -0.983577 134.199 
z
" style="fill:#ffffff;stroke:#ffffff;stroke-linejoin:miter;stroke-width:4.0;"/>
   <path d="M 0 134.199 
L 1 134.24296 
L 2 134.274909 
L 3 134.328056 
L 4 134.38318 
L 5 134.416984 
L 6 134.536463 
L 7 134.593662 
L 8 134.675322 
L 9 134.70393 
L 10 134.731958 
L 11 134.825109 
L 12 134.905207 
L 13 134.953859 
L 14 134.992446 
L 15 135.049109 
L 16 135.06982 
L 17 135.109287 
L 18 135.12392 
L 19 135.152178 
L 20 135.166465 
L 21 135.182902 
L 22 135.196619 
L 23 135.198762 
L 24 135.198723 
L 25 135.19607 
L 26 135.188773 
L 27 135.183733 
L 28 135.154179 
L 29 135.144224 
L 30 135.106488 
L 31 135.058783 
L 32 135.026602 
L 33 135.007137 
L 34 134.929672 
L 35 134.900883 
L 36 134.823878 
L 37 134.793471 
L 38 134.714237 
L 39 134.638398 
L 40 134.524666 
L 41 134.486107 
L 42 134.425414 
L 43 134.366342 
L 44 134.246405 
L 45 134.187736 
L 46 134.151876 
L 47 134.031424 
L 48 133.978494 
L 49 133.900569 
L 50 133.86962 
L 51 133.829068 
L 52 133.773873 
L 53 133.741583 
L 54 133.692632 
L 55 133.613323 
L 56 133.57455 
L 57 133.505115 
L 58 133.437293 
L 59 133.398778 
L 60 133.368466 
L 61 133.330323 
L 62 133.314689 
L 63 133.273736 
L 64 133.255454 
L 65 133.228037 
L 66 133.218066 
L 67 133.20324 
L 68 133.19932 
L 69 133.205904 
L 70 133.2186 
L 71 133.243165 
L 72 133.284846 
L 73 133.321855 
L 74 133.339094 
L 75 133.374703 
L 76 133.447365 
L 77 133.48552 
L 78 133.52596 
L 79 133.566335 
L 80 133.647007 
L 81 133.684066 
L 82 133.759577 
L 83 133.811602 
L 84 133.845907 
L 85 133.886309 
L 86 133.932491 
L 87 133.97525 
L 88 134.027181 
L 89 134.122635 
L 90 134.171164 
L 91 134.263137 
L 92 134.309485 
L 93 134.432563 
L 94 134.505277 
L 95 134.573211 
L 96 134.631451 
L 97 134.719177 
L 98 134.754097 
L 99 134.781258 
L 100 134.849263 
L 101 134.880101 
L 102 134.913868 
L 103 134.974707 
L 104 135.000707 
L 105 135.028591 
L 106 135.047184 
L 107 135.081241 
L 108 135.106207 
L 109 135.121107 
L 110 135.149473 
L 111 135.179626 
L 112 135.195059 
L 113 135.197706 
L 114 135.196233 
L 115 135.193274 
L 116 135.188413 
L 117 135.176925 
L 118 135.158115 
L 119 135.115831 
L 120 135.08565 
L 121 135.045486 
L 122 135.000183 
L 123 134.968064 
L 124 134.89206 
L 125 134.843364 
L 126 134.753774 
L 127 134.714487 
L 128 134.678076 
L 129 134.624196 
L 130 134.53538 
L 131 134.498111 
L 132 134.436383 
L 133 134.341204 
L 134 134.307138 
L 135 134.24625 
L 136 134.212907 
L 137 134.103215 
L 138 134.056301 
L 139 133.976409 
L 140 133.942984 
L 141 133.849557 
L 142 133.808695 
L 143 133.764699 
L 144 133.709558 
L 145 133.665339 
L 146 133.625254 
L 147 133.581515 
L 148 133.554627 
L 149 133.476388 
L 150 133.422769 
L 151 133.383261 
L 152 133.324779 
L 153 133.288207 
L 154 133.274585 
L 155 133.260489 
L 156 133.249776 
L 157 133.233616 
L 158 133.223951 
L 159 133.208052 
L 160 133.201639 
L 161 133.199127 
L 162 133.201145 
L 163 133.204247 
L 164 133.208713 
L 165 133.217438 
L 166 133.228937 
L 167 133.253472 
L 168 133.26439 
L 169 133.284686 
L 170 133.311542 
L 171 133.361412 
L 172 133.38109 
L 173 133.451243 
L 174 133.476318 
L 175 133.560674 
L 176 133.59294 
L 177 133.663471 
L 178 133.75331 
L 179 133.786064 
L 180 133.879538 
L 181 133.945405 
L 182 134.039903 
L 183 134.094643 
L 184 134.209285 
L 185 134.24853 
L 186 134.345401 
L 187 134.401674 
L 188 134.444853 
L 189 134.539784 
L 190 134.606348 
L 191 134.675309 
L 192 134.738168 
L 193 134.789669 
L 194 134.827634 
L 195 134.894667 
L 196 134.96232 
L 197 134.999131 
L 198 135.032373 
L 199 135.087557 
L 200 135.10394 
L 201 135.118684 
L 202 135.151091 
L 203 135.181833 
L 204 135.191909 
L 205 135.198338 
L 206 135.198488 
L 207 135.195341 
L 208 135.191653 
L 209 135.17146 
L 210 135.16108 
L 211 135.128733 
L 212 135.077755 
L 213 135.0534 
L 214 135.03331 
L 215 135.006571 
L 216 134.93633 
L 217 134.904306 
L 218 134.880319 
L 219 134.812136 
L 220 134.733228 
L 221 134.64223 
L 222 134.530658 
L 223 134.484509 
L 224 134.426441 
L 225 134.383385 
L 226 134.285955 
L 227 134.213928 
L 228 134.125909 
L 229 134.076672 
L 230 134.041764 
L 231 133.927141 
L 232 133.833978 
L 233 133.77406 
L 234 133.730818 
L 235 133.664208 
L 236 133.610156 
L 237 133.537329 
L 238 133.453891 
L 239.58 133.41265 
L 238.737079 133.199 
L 238.7153 132.199 
L 238.687678 131.199 
L 238.650812 130.199 
L 238.621659 129.199 
L 238.597771 128.199 
L 238.590409 127.199 
L 238.585191 126.199 
L 238.58248 125.199 
L 238.580003 124.199 
L 238.583771 123.199 
L 238.598369 122.199 
L 238.607442 121.199 
L 238.615403 120.199 
L 238.639808 119.199 
L 238.661466 118.199 
L 238.678037 117.199 
L 238.699254 116.199 
L 238.717726 115.199 
L 238.74183 114.199 
L 238.786485 113.199 
L 238.841146 112.199 
L 238.930212 111.199 
L 238.981751 110.199 
L 239.013095 109.199 
L 239.063718 108.199 
L 239.152259 107.199 
L 239.196583 106.199 
L 239.247522 105.199 
L 239.27753 104.199 
L 239.362011 103.199 
L 239.431014 102.199 
L 239.530255 101.199 
L 239.581115 100.199 
L 239.660125 99.199 
L 239.711221 98.199 
L 239.768292 97.199 
L 239.799688 96.199 
L 239.88101 95.199 
L 239.959671 94.199 
L 240.028659 93.199 
L 240.062711 92.199 
L 240.162853 91.199 
L 240.1953 90.199 
L 240.256777 89.199 
L 240.281114 88.199 
L 240.351797 87.199 
L 240.403831 86.199 
L 240.44725 85.199 
L 240.472275 84.199 
L 240.494775 83.199 
L 240.523746 82.199 
L 240.553713 81.199 
L 240.567397 80.199 
L 240.574297 79.199 
L 240.578665 78.199 
L 240.579858 77.199 
L 240.579837 76.199 
L 240.577423 75.199 
L 240.570572 74.199 
L 240.559479 73.199 
L 240.549872 72.199 
L 240.541504 71.199 
L 240.524035 70.199 
L 240.492199 69.199 
L 240.47422 68.199 
L 240.431019 67.199 
L 240.40957 66.199 
L 240.368649 65.199 
L 240.342069 64.199 
L 240.302052 63.199 
L 240.235998 62.199 
L 240.187244 61.199 
L 240.159465 60.199 
L 240.118342 59.199 
L 240.069434 58.199 
L 240.003577 57.199 
L 239.971383 56.199 
L 239.912503 55.199 
L 239.79257 54.199 
L 239.709882 53.199 
L 239.675826 52.199 
L 239.597453 51.199 
L 239.513363 50.199 
L 239.42103 49.199 
L 239.353877 48.199 
L 239.282584 47.199 
L 239.186594 46.199 
L 239.09165 45.199 
L 239.043596 44.199 
L 238.942799 43.199 
L 238.87678 42.199 
L 238.851452 41.199 
L 238.802498 40.199 
L 238.742135 39.199 
L 238.696233 38.199 
L 238.678276 37.199 
L 238.662984 36.199 
L 238.620573 35.199 
L 238.606342 34.199 
L 238.595593 33.199 
L 238.590145 32.199 
L 238.583515 31.199 
L 238.58005 30.199 
L 238.581411 29.199 
L 238.589196 28.199 
L 238.597889 27.199 
L 238.607188 26.199 
L 238.618125 25.199 
L 238.650961 24.199 
L 238.697093 23.199 
L 238.746031 22.199 
L 238.78883 21.199 
L 238.839437 20.199 
L 238.900956 19.199 
L 238.945316 18.199 
L 239.037511 17.199 
L 239.086692 16.199 
L 239.12175 15.199 
L 239.16299 14.199 
L 239.218125 13.199 
L 239.330524 12.199 
L 239.381621 11.199 
L 239.453554 10.199 
L 239.519047 9.199 
L 239.644571 8.199 
L 239.713955 7.199 
L 239.780814 6.199 
L 239.842351 5.199 
L 239.905884 4.199 
L 239.955759 3.199 
L 240.033754 2.199 
L 240.108976 1.199 
L 240.139436 0 
L 238.58 -0.644952 
L 237.58 -0.70129 
L 236.58 -0.733873 
L 235.58 -0.766806 
L 234.58 -0.827025 
L 233.58 -0.880689 
L 232.58 -0.92544 
L 231.58 -0.941491 
L 230.58 -0.971673 
L 229.58 -0.979747 
L 228.58 -0.987139 
L 227.58 -0.993672 
L 226.58 -0.999958 
L 225.58 -0.996346 
L 224.58 -0.986326 
L 223.58 -0.962427 
L 222.58 -0.951813 
L 221.58 -0.937846 
L 220.58 -0.893287 
L 219.58 -0.840492 
L 218.58 -0.814289 
L 217.58 -0.787425 
L 216.58 -0.727807 
L 215.58 -0.652872 
L 214.58 -0.592879 
L 213.58 -0.525675 
L 212.58 -0.431965 
L 211.58 -0.384092 
L 210.58 -0.352075 
L 209.58 -0.299072 
L 208.58 -0.253199 
L 207.58 -0.133281 
L 206.58 -0.050516 
L 205.58 -0.018799 
L 204.58 0.074163 
L 203.58 0.15687 
L 202.58 0.235125 
L 201.58 0.335715 
L 200.58 0.432493 
L 199.58 0.490142 
L 198.58 0.524745 
L 197.58 0.624664 
L 196.58 0.682529 
L 195.58 0.721103 
L 194.58 0.749885 
L 193.58 0.787221 
L 192.58 0.847375 
L 191.58 0.864345 
L 190.58 0.906819 
L 189.58 0.919781 
L 188.58 0.932344 
L 187.58 0.960576 
L 186.58 0.9724 
L 185.58 0.985485 
L 184.58 0.998746 
L 183.58 0.999904 
L 182.58 0.996475 
L 181.58 0.989607 
L 180.58 0.966936 
L 179.58 0.935673 
L 178.58 0.91415 
L 177.58 0.8617 
L 176.58 0.833176 
L 175.58 0.789107 
L 174.58 0.716651 
L 173.58 0.689249 
L 172.58 0.639627 
L 171.58 0.599969 
L 170.58 0.514144 
L 169.58 0.485466 
L 168.58 0.398682 
L 167.58 0.356302 
L 166.58 0.258475 
L 165.58 0.15581 
L 164.58 0.08983 
L 163.58 0.024011 
L 162.58 -0.040962 
L 161.58 -0.097293 
L 160.58 -0.129439 
L 159.58 -0.19628 
L 158.58 -0.284075 
L 157.58 -0.343611 
L 156.58 -0.399398 
L 155.58 -0.466047 
L 154.58 -0.495408 
L 153.58 -0.523679 
L 152.58 -0.575218 
L 151.58 -0.630528 
L 150.58 -0.671745 
L 149.58 -0.718347 
L 148.58 -0.779017 
L 147.58 -0.814563 
L 146.58 -0.866622 
L 145.58 -0.883939 
L 144.58 -0.899238 
L 143.58 -0.938024 
L 142.58 -0.953531 
L 141.58 -0.963042 
L 140.58 -0.978171 
L 139.58 -0.986805 
L 138.58 -0.992064 
L 137.58 -0.999994 
L 136.58 -0.999582 
L 135.58 -0.997631 
L 134.58 -0.991057 
L 133.58 -0.977185 
L 132.58 -0.969052 
L 131.58 -0.937703 
L 130.58 -0.912643 
L 129.58 -0.886023 
L 128.58 -0.854866 
L 127.58 -0.829206 
L 126.58 -0.796807 
L 125.58 -0.765209 
L 124.58 -0.693397 
L 123.58 -0.617591 
L 122.58 -0.588724 
L 121.58 -0.554886 
L 120.58 -0.49721 
L 119.58 -0.447355 
L 118.58 -0.370219 
L 117.58 -0.329554 
L 116.58 -0.247127 
L 115.58 -0.200549 
L 114.58 -0.137902 
L 113.58 -0.102467 
L 112.58 -0.053302 
L 111.58 0.072005 
L 110.58 0.19635 
L 109.58 0.278184 
L 108.58 0.330278 
L 107.58 0.433466 
L 106.58 0.464337 
L 105.58 0.536384 
L 104.58 0.599677 
L 103.58 0.691192 
L 102.58 0.758662 
L 101.58 0.797958 
L 100.58 0.848473 
L 99.58 0.904763 
L 98.58 0.925669 
L 97.58 0.94672 
L 96.58 0.959246 
L 95.58 0.971918 
L 94.58 0.98698 
L 93.58 0.993469 
L 92.58 0.999965 
L 91.58 0.998402 
L 90.58 0.994081 
L 89.58 0.988388 
L 88.58 0.972423 
L 87.58 0.935586 
L 86.58 0.920085 
L 85.58 0.895835 
L 84.58 0.854566 
L 83.58 0.835834 
L 82.58 0.813392 
L 81.58 0.773035 
L 80.58 0.716583 
L 79.58 0.684811 
L 78.58 0.617376 
L 77.58 0.552549 
L 76.58 0.487672 
L 75.58 0.455123 
L 74.58 0.416176 
L 73.58 0.357717 
L 72.58 0.309222 
L 71.58 0.225714 
L 70.58 0.191181 
L 69.58 0.072092 
L 68.58 0.034613 
L 67.58 -0.036123 
L 66.58 -0.106321 
L 65.58 -0.217582 
L 64.58 -0.257493 
L 63.58 -0.356553 
L 62.58 -0.401327 
L 61.58 -0.487913 
L 60.58 -0.562871 
L 59.58 -0.609002 
L 58.58 -0.641189 
L 57.58 -0.72301 
L 56.58 -0.770055 
L 55.58 -0.798554 
L 54.58 -0.819357 
L 53.58 -0.854727 
L 52.58 -0.88159 
L 51.58 -0.923837 
L 50.58 -0.96106 
L 49.58 -0.979784 
L 48.58 -0.994064 
L 47.58 -0.99843 
L 46.58 -0.999906 
L 45.58 -0.993848 
L 44.58 -0.975682 
L 43.58 -0.956553 
L 42.58 -0.943679 
L 41.58 -0.907182 
L 40.58 -0.882509 
L 39.58 -0.858168 
L 38.58 -0.831855 
L 37.58 -0.801719 
L 36.58 -0.761933 
L 35.58 -0.711794 
L 34.58 -0.641387 
L 33.58 -0.601887 
L 32.58 -0.51379 
L 31.58 -0.475163 
L 30.58 -0.398943 
L 29.58 -0.337721 
L 28.58 -0.252712 
L 27.58 -0.200418 
L 26.58 -0.103476 
L 25.58 -0.000916 
L 24.58 0.093737 
L 23.58 0.193987 
L 22.58 0.225556 
L 21.58 0.277274 
L 20.58 0.320925 
L 19.58 0.420155 
L 18.58 0.486309 
L 17.58 0.587155 
L 16.58 0.631495 
L 15.58 0.712642 
L 14.58 0.749444 
L 13.58 0.772044 
L 12.58 0.806997 
L 11.58 0.83155 
L 10.58 0.855069 
L 9.58 0.888114 
L 8.58 0.928498 
L 7.58 0.950445 
L 6.58 0.971441 
L 5.58 0.990024 
L 4.58 0.995979 
L 3.58 0.999984 
L 2.58 0.999423 
L 1.58 0.991537 
L 0 0.984486 
L 0.974108 1 
L 0.957659 2 
L 0.91477 3 
L 0.885285 4 
L 0.841554 5 
L 0.797274 6 
L 0.747405 7 
L 0.676604 8 
L 0.650635 9 
L 0.610467 10 
L 0.545673 11 
L 0.462727 12 
L 0.430143 13 
L 0.385926 14 
L 0.326099 15 
L 0.218666 16 
L 0.124628 17 
L 0.062436 18 
L -0.023384 19 
L -0.092581 20 
L -0.13605 21 
L -0.24701 22 
L -0.277534 23 
L -0.368659 24 
L -0.415831 25 
L -0.504506 26 
L -0.588698 27 
L -0.635334 28 
L -0.675212 29 
L -0.701697 30 
L -0.750775 31 
L -0.78196 32 
L -0.843762 33 
L -0.870243 34 
L -0.893526 35 
L -0.911002 36 
L -0.948519 37 
L -0.965651 38 
L -0.975026 39 
L -0.984568 40 
L -0.99539 41 
L -0.999973 42 
L -0.999206 43 
L -0.995853 44 
L -0.976643 45 
L -0.965528 46 
L -0.949765 47 
L -0.935499 48 
L -0.908571 49 
L -0.864578 50 
L -0.845137 51 
L -0.773993 52 
L -0.746081 53 
L -0.68507 54 
L -0.626988 55 
L -0.548978 56 
L -0.490533 57 
L -0.462868 58 
L -0.43005 59 
L -0.401366 60 
L -0.299843 61 
L -0.256862 62 
L -0.207233 63 
L -0.141608 64 
L -0.075359 65 
L 0.002931 66 
L 0.050828 67 
L 0.131991 68 
L 0.18858 69 
L 0.23665 70 
L 0.305135 71 
L 0.340955 72 
L 0.396389 73 
L 0.427933 74 
L 0.49465 75 
L 0.554834 76 
L 0.591421 77 
L 0.641202 78 
L 0.702247 79 
L 0.724754 80 
L 0.747612 81 
L 0.772157 82 
L 0.80215 83 
L 0.821149 84 
L 0.844415 85 
L 0.88824 86 
L 0.91808 87 
L 0.946706 88 
L 0.967677 89 
L 0.977456 90 
L 0.983854 91 
L 0.997227 92 
L 0.999991 93 
L 0.994611 94 
L 0.985821 95 
L 0.968174 96 
L 0.959306 97 
L 0.936552 98 
L 0.901645 99 
L 0.870477 100 
L 0.853758 101 
L 0.821925 102 
L 0.74862 103 
L 0.706719 104 
L 0.669295 105 
L 0.617842 106 
L 0.525173 107 
L 0.472882 108 
L 0.394893 109 
L 0.347832 110 
L 0.317526 111 
L 0.2354 112 
L 0.156832 113 
L 0.08228 114 
L 0.038698 115 
L -0.037243 116 
L -0.13609 117 
L -0.207893 118 
L -0.279964 119 
L -0.394259 120 
L -0.502357 121 
L -0.565182 122 
L -0.595925 123 
L -0.68075 124 
L -0.73293 125 
L -0.772492 126 
L -0.792446 127 
L -0.820711 128 
L -0.845137 129 
L -0.893159 130 
L -0.923586 131 
L -0.94697 132 
L -0.963632 133 
L -0.983577 134.199 
z
" style="fill:#ffffff;"/>
   <g id="axes_1">
    <g id="patch_2">
     <path clip-path="url(#p62077a2e78)" d="M 128.7 89.055 
L 128.408634 88.097379 
L 128.105941 87.143755 
L 127.823238 86.183077 
L 127.542399 85.22174 
L 127.241456 84.267499 
L 127.021303 83.284744 
L 126.742421 82.322716 
L 126.486606 81.352548 
L 125.936144 79.706949 
L 126.46 80.407958 
L 127.46 80.501109 
L 128.6838 80.581207 
L 129.438659 78.875 
L 129.477246 77.875 
L 129.533909 76.875 
L 129.55462 75.875 
L 129.594087 74.875 
L 129.60872 73.875 
L 129.636978 72.875 
L 129.651265 71.875 
L 129.667702 70.875 
L 129.681419 69.875 
L 129.683562 68.875 
L 129.683523 67.875 
L 129.68087 66.875 
L 129.673573 65.875 
L 129.668533 64.875 
L 129.638979 63.875 
L 129.629024 62.875 
L 129.591288 61.875 
L 129.543583 60.875 
L 129.511402 59.875 
L 129.491937 58.875 
L 129.414472 57.875 
L 129.385683 56.875 
L 129.308678 55.875 
L 129.278271 54.875 
L 129.199037 53.875 
L 129.123198 52.875 
L 129.009466 51.875 
L 128.970907 50.875 
L 128.910214 49.875 
L 128.851142 48.875 
L 128.731205 47.875 
L 128.672536 46.875 
L 128.636676 45.875 
L 128.516224 44.875 
L 128.463294 43.875 
L 128.385369 42.875 
L 128.35442 41.875 
L 128.313868 40.875 
L 128.258673 39.875 
L 128.226383 38.875 
L 128.177432 37.875 
L 128.098123 36.875 
L 128.05935 35.875 
L 127.989915 34.875 
L 127.922093 33.875 
L 127.883578 32.875 
L 127.853266 31.875 
L 127.815123 30.875 
L 127.799489 29.875 
L 127.758536 28.875 
L 127.740254 27.855 
L 128.7162 26.884037 
L 129.697134 28.855 
L 129.71196 29.855 
L 129.71588 30.855 
L 129.709296 31.855 
L 129.6966 32.855 
L 129.672035 33.855 
L 129.630354 34.855 
L 129.593345 35.855 
L 129.576106 36.855 
L 129.540497 37.855 
L 129.467835 38.855 
L 129.42968 39.855 
L 129.38924 40.855 
L 129.348865 41.855 
L 129.268193 42.855 
L 129.231134 43.855 
L 129.155623 44.855 
L 129.103598 45.855 
L 129.069293 46.855 
L 129.028891 47.855 
L 128.982709 48.855 
L 128.93995 49.855 
L 128.888019 50.855 
L 128.792565 51.855 
L 128.744036 52.855 
L 128.652063 53.855 
L 128.605715 54.855 
L 128.482637 55.855 
L 128.409923 56.855 
L 128.341989 57.855 
L 128.283749 58.855 
L 128.196023 59.855 
L 128.161103 60.855 
L 128.133942 61.855 
L 128.065937 62.855 
L 128.035099 63.855 
L 128.001332 64.855 
L 127.940493 65.855 
L 127.914493 66.855 
L 127.886609 67.855 
L 127.868016 68.855 
L 127.833959 69.855 
L 127.808993 70.855 
L 127.794093 71.855 
L 127.765727 72.855 
L 127.735574 73.855 
L 127.720141 74.855 
L 127.717494 75.855 
L 127.718967 76.855 
L 127.721926 77.855 
L 127.726787 78.855 
L 127.738275 79.875 
L 129.7162 80.834115 
L 130.7162 80.791831 
L 131.94 80.76165 
L 130.808951 80.536263 
L 130.518852 81.494331 
L 130.21632 82.448011 
L 129.955171 83.416297 
L 129.66827 84.375494 
L 129.419933 85.348302 
L 129.12416 86.304368 
L 128.825675 87.259476 
L 128.299045 88.913486 
z
" style="stroke:#ffffff;stroke-linejoin:miter;stroke-width:4.0;"/>
     <path clip-path="url(#p62077a2e78)" d="M 128.7 89.055 
L 128.408634 88.097379 
L 128.105941 87.143755 
L 127.823238 86.183077 
L 127.542399 85.22174 
L 127.241456 84.267499 
L 127.021303 83.284744 
L 126.742421 82.322716 
L 126.486606 81.352548 
L 125.936144 79.706949 
L 126.46 80.407958 
L 127.46 80.501109 
L 128.6838 80.581207 
L 129.438659 78.875 
L 129.477246 77.875 
L 129.533909 76.875 
L 129.55462 75.875 
L 129.594087 74.875 
L 129.60872 73.875 
L 129.636978 72.875 
L 129.651265 71.875 
L 129.667702 70.875 
L 129.681419 69.875 
L 129.683562 68.875 
L 129.683523 67.875 
L 129.68087 66.875 
L 129.673573 65.875 
L 129.668533 64.875 
L 129.638979 63.875 
L 129.629024 62.875 
L 129.591288 61.875 
L 129.543583 60.875 
L 129.511402 59.875 
L 129.491937 58.875 
L 129.414472 57.875 
L 129.385683 56.875 
L 129.308678 55.875 
L 129.278271 54.875 
L 129.199037 53.875 
L 129.123198 52.875 
L 129.009466 51.875 
L 128.970907 50.875 
L 128.910214 49.875 
L 128.851142 48.875 
L 128.731205 47.875 
L 128.672536 46.875 
L 128.636676 45.875 
L 128.516224 44.875 
L 128.463294 43.875 
L 128.385369 42.875 
L 128.35442 41.875 
L 128.313868 40.875 
L 128.258673 39.875 
L 128.226383 38.875 
L 128.177432 37.875 
L 128.098123 36.875 
L 128.05935 35.875 
L 127.989915 34.875 
L 127.922093 33.875 
L 127.883578 32.875 
L 127.853266 31.875 
L 127.815123 30.875 
L 127.799489 29.875 
L 127.758536 28.875 
L 127.740254 27.855 
L 128.7162 26.884037 
L 129.697134 28.855 
L 129.71196 29.855 
L 129.71588 30.855 
L 129.709296 31.855 
L 129.6966 32.855 
L 129.672035 33.855 
L 129.630354 34.855 
L 129.593345 35.855 
L 129.576106 36.855 
L 129.540497 37.855 
L 129.467835 38.855 
L 129.42968 39.855 
L 129.38924 40.855 
L 129.348865 41.855 
L 129.268193 42.855 
L 129.231134 43.855 
L 129.155623 44.855 
L 129.103598 45.855 
L 129.069293 46.855 
L 129.028891 47.855 
L 128.982709 48.855 
L 128.93995 49.855 
L 128.888019 50.855 
L 128.792565 51.855 
L 128.744036 52.855 
L 128.652063 53.855 
L 128.605715 54.855 
L 128.482637 55.855 
L 128.409923 56.855 
L 128.341989 57.855 
L 128.283749 58.855 
L 128.196023 59.855 
L 128.161103 60.855 
L 128.133942 61.855 
L 128.065937 62.855 
L 128.035099 63.855 
L 128.001332 64.855 
L 127.940493 65.855 
L 127.914493 66.855 
L 127.886609 67.855 
L 127.868016 68.855 
L 127.833959 69.855 
L 127.808993 70.855 
L 127.794093 71.855 
L 127.765727 72.855 
L 127.735574 73.855 
L 127.720141 74.855 
L 127.717494 75.855 
L 127.718967 76.855 
L 127.721926 77.855 
L 127.726787 78.855 
L 127.738275 79.875 
L 129.7162 80.834115 
L 130.7162 80.791831 
L 131.94 80.76165 
L 130.808951 80.536263 
L 130.518852 81.494331 
L 130.21632 82.448011 
L 129.955171 83.416297 
L 129.66827 84.375494 
L 129.419933 85.348302 
L 129.12416 86.304368 
L 128.825675 87.259476 
L 128.299045 88.913486 
z
" style="stroke:#000000;stroke-linejoin:miter;stroke-width:1.5;"/>
     <path clip-path="url(#p62077a2e78)" d="M 18.54 104.355 
L 18.58396 103.355 
L 18.615909 102.355 
L 18.669056 101.355 
L 18.72418 100.355 
L 18.757984 99.355 
L 18.877463 98.355 
L 18.934662 97.355 
L 19.016322 96.355 
L 19.04493 95.355 
L 19.072958 94.355 
L 19.166109 93.355 
L 19.246207 92.355 
L 19.294859 91.355 
L 19.333446 90.355 
L 19.390109 89.355 
L 19.41082 88.355 
L 19.450287 87.355 
L 19.46492 86.355 
L 19.493178 85.355 
L 19.507465 84.355 
L 19.523902 83.355 
L 19.537619 82.355 
L 19.539762 81.355 
L 19.539723 80.355 
L 19.53707 79.355 
L 19.529773 78.355 
L 19.524733 77.355 
L 19.495179 76.355 
L 19.485224 75.355 
L 19.447488 74.355 
L 19.399783 73.355 
L 19.367602 72.355 
L 19.348137 71.355 
L 19.270672 70.355 
L 19.241883 69.355 
L 19.164878 68.355 
L 19.134471 67.355 
L 19.055237 66.355 
L 18.979398 65.355 
L 18.865666 64.355 
L 18.827107 63.355 
L 18.766414 62.355 
L 18.707342 61.209 
M 10.44 61.209 
L 11.44 61.329418 
L 12.44 61.387437 
L 13.44 61.422616 
L 14.44 61.539189 
L 15.44 61.58962 
L 16.44 61.662939 
L 17.44 61.69174 
L 18.44 61.729186 
L 19.44 61.7796 
L 20.44 61.808776 
L 21.44 61.85253 
L 22.44 61.922056 
L 23.44 61.95535 
L 24.44 62.013601 
L 25.44 62.06839 
L 26.64 62.098293 
M 10.44 55.701 
L 11.44 55.753377 
L 12.44 55.825537 
L 13.44 55.857703 
L 14.44 55.952341 
L 15.44 56.001782 
L 16.44 56.091852 
L 17.44 56.133754 
L 18.44 56.224552 
L 19.44 56.320754 
L 20.44 56.390436 
L 21.44 56.446606 
L 22.44 56.509407 
L 23.44 56.573605 
L 24.44 56.611315 
L 25.44 56.625164 
L 26.64 56.648386 
M 18.54 55.701 
L 18.658146 54.701 
L 18.713623 53.701 
L 18.768609 52.701 
L 18.820169 51.701 
L 18.914825 50.701 
L 18.955078 49.701 
L 19.031668 48.701 
L 19.080602 47.701 
L 19.111297 46.701 
L 19.145931 45.701 
L 19.183598 44.701 
L 19.216721 43.701 
L 19.254763 42.701 
L 19.318656 41.701 
L 19.348219 40.701 
L 19.398912 39.701 
L 19.421803 38.701 
L 19.473732 37.701 
L 19.498085 36.701 
L 19.516269 35.701 
L 19.528069 34.701 
L 19.5385 33.701 
L 19.539911 32.701 
L 19.539807 31.701 
L 19.534377 30.701 
L 19.529152 29.701 
L 19.521125 28.701 
L 19.49938 27.701 
L 19.486589 26.701 
L 19.469943 25.701 
L 19.456837 24.701 
L 19.427564 23.701 
L 19.40039 22.701 
L 19.381007 21.701 
L 19.334315 20.701 
L 19.25666 19.701 
L 19.177037 18.701 
L 19.147339 17.701 
L 19.043311 16.701 
L 19.014827 15.701 
L 18.980534 14.701 
L 18.921417 13.701 
L 18.849718 12.555 
" style="fill:none;stroke:#ffffff;stroke-linecap:round;stroke-width:4.0;"/>
     <path clip-path="url(#p62077a2e78)" d="M 18.54 104.355 
L 18.58396 103.355 
L 18.615909 102.355 
L 18.669056 101.355 
L 18.72418 100.355 
L 18.757984 99.355 
L 18.877463 98.355 
L 18.934662 97.355 
L 19.016322 96.355 
L 19.04493 95.355 
L 19.072958 94.355 
L 19.166109 93.355 
L 19.246207 92.355 
L 19.294859 91.355 
L 19.333446 90.355 
L 19.390109 89.355 
L 19.41082 88.355 
L 19.450287 87.355 
L 19.46492 86.355 
L 19.493178 85.355 
L 19.507465 84.355 
L 19.523902 83.355 
L 19.537619 82.355 
L 19.539762 81.355 
L 19.539723 80.355 
L 19.53707 79.355 
L 19.529773 78.355 
L 19.524733 77.355 
L 19.495179 76.355 
L 19.485224 75.355 
L 19.447488 74.355 
L 19.399783 73.355 
L 19.367602 72.355 
L 19.348137 71.355 
L 19.270672 70.355 
L 19.241883 69.355 
L 19.164878 68.355 
L 19.134471 67.355 
L 19.055237 66.355 
L 18.979398 65.355 
L 18.865666 64.355 
L 18.827107 63.355 
L 18.766414 62.355 
L 18.707342 61.209 
M 10.44 61.209 
L 11.44 61.329418 
L 12.44 61.387437 
L 13.44 61.422616 
L 14.44 61.539189 
L 15.44 61.58962 
L 16.44 61.662939 
L 17.44 61.69174 
L 18.44 61.729186 
L 19.44 61.7796 
L 20.44 61.808776 
L 21.44 61.85253 
L 22.44 61.922056 
L 23.44 61.95535 
L 24.44 62.013601 
L 25.44 62.06839 
L 26.64 62.098293 
M 10.44 55.701 
L 11.44 55.753377 
L 12.44 55.825537 
L 13.44 55.857703 
L 14.44 55.952341 
L 15.44 56.001782 
L 16.44 56.091852 
L 17.44 56.133754 
L 18.44 56.224552 
L 19.44 56.320754 
L 20.44 56.390436 
L 21.44 56.446606 
L 22.44 56.509407 
L 23.44 56.573605 
L 24.44 56.611315 
L 25.44 56.625164 
L 26.64 56.648386 
M 18.54 55.701 
L 18.658146 54.701 
L 18.713623 53.701 
L 18.768609 52.701 
L 18.820169 51.701 
L 18.914825 50.701 
L 18.955078 49.701 
L 19.031668 48.701 
L 19.080602 47.701 
L 19.111297 46.701 
L 19.145931 45.701 
L 19.183598 44.701 
L 19.216721 43.701 
L 19.254763 42.701 
L 19.318656 41.701 
L 19.348219 40.701 
L 19.398912 39.701 
L 19.421803 38.701 
L 19.473732 37.701 
L 19.498085 36.701 
L 19.516269 35.701 
L 19.528069 34.701 
L 19.5385 33.701 
L 19.539911 32.701 
L 19.539807 31.701 
L 19.534377 30.701 
L 19.529152 29.701 
L 19.521125 28.701 
L 19.49938 27.701 
L 19.486589 26.701 
L 19.469943 25.701 
L 19.456837 24.701 
L 19.427564 23.701 
L 19.40039 22.701 
L 19.381007 21.701 
L 19.334315 20.701 
L 19.25666 19.701 
L 19.177037 18.701 
L 19.147339 17.701 
L 19.043311 16.701 
L 19.014827 15.701 
L 18.980534 14.701 
L 18.921417 13.701 
L 18.849718 12.555 
" style="fill:none;stroke:#000000;stroke-linecap:round;stroke-width:1.5;"/>
     <path clip-path="url(#p62077a2e78)" d="M 18.54 12.555 
L 19.54 12.59896 
L 20.54 12.630909 
L 21.54 12.684056 
L 22.54 12.73918 
L 23.54 12.772984 
L 24.54 12.892463 
L 25.54 12.949662 
L 26.54 13.031322 
L 27.54 13.05993 
L 28.54 13.087958 
L 29.54 13.181109 
L 30.54 13.261207 
L 31.54 13.309859 
L 32.54 13.348446 
L 33.54 13.405109 
L 34.54 13.42582 
L 35.54 13.465287 
L 36.54 13.47992 
L 37.54 13.508178 
L 38.54 13.522465 
L 39.54 13.538902 
L 40.54 13.552619 
L 41.54 13.554762 
L 42.54 13.554723 
L 43.54 13.55207 
L 44.54 13.544773 
L 45.54 13.539733 
L 46.54 13.510179 
L 47.54 13.500224 
L 48.54 13.462488 
L 49.54 13.414783 
L 50.54 13.382602 
L 51.54 13.363137 
L 52.54 13.285672 
L 53.54 13.256883 
L 54.54 13.179878 
L 55.54 13.149471 
L 56.54 13.070237 
L 57.54 12.994398 
L 58.54 12.880666 
L 59.54 12.842107 
L 60.54 12.781414 
L 61.54 12.722342 
L 62.54 12.602405 
L 63.54 12.543736 
L 64.54 12.507876 
L 65.54 12.387424 
L 67.14 12.334494 
L 68.14 12.256569 
L 69.14 12.22562 
L 70.14 12.185068 
L 71.14 12.129873 
L 72.14 12.097583 
L 73.14 12.048632 
L 74.14 11.969323 
L 75.14 11.93055 
L 76.14 11.861115 
L 77.14 11.793293 
L 78.14 11.754778 
L 79.14 11.724466 
L 80.14 11.686323 
L 81.14 11.670689 
L 82.14 11.629736 
L 83.14 11.611454 
L 84.14 11.584037 
L 85.14 11.574066 
L 86.14 11.55924 
L 87.14 11.55532 
L 88.14 11.561904 
L 89.14 11.5746 
L 90.14 11.599165 
L 91.14 11.640846 
L 92.14 11.677855 
L 93.14 11.695094 
L 94.14 11.730703 
L 95.14 11.803365 
L 96.14 11.84152 
L 97.14 11.88196 
L 98.14 11.922335 
L 99.14 12.003007 
L 100.14 12.040066 
L 101.14 12.115577 
L 102.14 12.167602 
L 103.14 12.201907 
L 104.14 12.242309 
L 105.14 12.288491 
L 106.14 12.33125 
L 107.14 12.383181 
L 108.14 12.478635 
L 109.14 12.527164 
L 110.14 12.619137 
L 111.14 12.665485 
L 112.14 12.788563 
L 113.14 12.861277 
L 114.14 12.929211 
L 115.74 12.987451 
" style="fill:none;stroke:#ffffff;stroke-linecap:round;stroke-width:4.0;"/>
     <path clip-path="url(#p62077a2e78)" d="M 18.54 12.555 
L 19.54 12.59896 
L 20.54 12.630909 
L 21.54 12.684056 
L 22.54 12.73918 
L 23.54 12.772984 
L 24.54 12.892463 
L 25.54 12.949662 
L 26.54 13.031322 
L 27.54 13.05993 
L 28.54 13.087958 
L 29.54 13.181109 
L 30.54 13.261207 
L 31.54 13.309859 
L 32.54 13.348446 
L 33.54 13.405109 
L 34.54 13.42582 
L 35.54 13.465287 
L 36.54 13.47992 
L 37.54 13.508178 
L 38.54 13.522465 
L 39.54 13.538902 
L 40.54 13.552619 
L 41.54 13.554762 
L 42.54 13.554723 
L 43.54 13.55207 
L 44.54 13.544773 
L 45.54 13.539733 
L 46.54 13.510179 
L 47.54 13.500224 
L 48.54 13.462488 
L 49.54 13.414783 
L 50.54 13.382602 
L 51.54 13.363137 
L 52.54 13.285672 
L 53.54 13.256883 
L 54.54 13.179878 
L 55.54 13.149471 
L 56.54 13.070237 
L 57.54 12.994398 
L 58.54 12.880666 
L 59.54 12.842107 
L 60.54 12.781414 
L 61.54 12.722342 
L 62.54 12.602405 
L 63.54 12.543736 
L 64.54 12.507876 
L 65.54 12.387424 
L 67.14 12.334494 
L 68.14 12.256569 
L 69.14 12.22562 
L 70.14 12.185068 
L 71.14 12.129873 
L 72.14 12.097583 
L 73.14 12.048632 
L 74.14 11.969323 
L 75.14 11.93055 
L 76.14 11.861115 
L 77.14 11.793293 
L 78.14 11.754778 
L 79.14 11.724466 
L 80.14 11.686323 
L 81.14 11.670689 
L 82.14 11.629736 
L 83.14 11.611454 
L 84.14 11.584037 
L 85.14 11.574066 
L 86.14 11.55924 
L 87.14 11.55532 
L 88.14 11.561904 
L 89.14 11.5746 
L 90.14 11.599165 
L 91.14 11.640846 
L 92.14 11.677855 
L 93.14 11.695094 
L 94.14 11.730703 
L 95.14 11.803365 
L 96.14 11.84152 
L 97.14 11.88196 
L 98.14 11.922335 
L 99.14 12.003007 
L 100.14 12.040066 
L 101.14 12.115577 
L 102.14 12.167602 
L 103.14 12.201907 
L 104.14 12.242309 
L 105.14 12.288491 
L 106.14 12.33125 
L 107.14 12.383181 
L 108.14 12.478635 
L 109.14 12.527164 
L 110.14 12.619137 
L 111.14 12.665485 
L 112.14 12.788563 
L 113.14 12.861277 
L 114.14 12.929211 
L 115.74 12.987451 
" style="fill:none;stroke:#000000;stroke-linecap:round;stroke-width:1.5;"/>
     <path clip-path="url(#p62077a2e78)" d="M 115.74 12.555 
" style="fill:none;stroke:#ffffff;stroke-linecap:round;stroke-width:4.0;"/>
     <path clip-path="url(#p62077a2e78)" d="M 115.74 12.555 
" style="fill:none;stroke:#000000;stroke-linecap:round;stroke-width:1.5;"/>
     <path clip-path="url(#p62077a2e78)" d="M 115.74 12.555 
L 115.69604 13.555 
L 115.664091 14.555 
L 115.610944 15.555 
L 115.55582 16.555 
L 115.522016 17.555 
L 115.402537 18.555 
L 115.345338 19.555 
L 115.263678 20.555 
L 115.23507 21.555 
L 115.207042 22.555 
L 115.113891 23.555 
L 115.033793 24.555 
L 114.985141 25.555 
L 114.946554 26.555 
L 114.889891 27.555 
L 114.86918 28.555 
L 114.829713 29.555 
L 114.81508 30.555 
L 114.786822 31.555 
L 114.772535 32.555 
L 114.756098 33.555 
L 114.742381 34.555 
L 114.740238 35.555 
L 114.740277 36.555 
L 114.74293 37.555 
L 114.750227 38.555 
L 114.755267 39.555 
L 114.784821 40.555 
L 114.794776 41.555 
L 114.832512 43.155 
L 116.435668 44.27539 
L 117.399181 44.544979 
L 118.358876 44.826699 
L 119.335987 45.053094 
L 120.298481 45.32592 
L 121.275453 45.552755 
L 122.238434 45.824036 
L 123.685282 46.196459 
L 122.754206 45.586166 
L 121.834509 45.994935 
L 120.892238 46.332001 
L 119.956614 46.690179 
L 119.020503 47.04681 
L 118.102669 47.461498 
L 117.166438 47.817745 
L 116.223357 48.152236 
L 115.305677 48.567415 
L 114.367722 48.918188 
L 113.437273 49.292802 
L 112.492717 49.62261 
L 111.551045 49.961575 
L 110.61377 50.31451 
L 109.669617 50.645595 
L 107.792055 51.287999 
L 108.76972 50.546639 
L 109.735212 50.80994 
L 110.709912 51.043996 
L 111.684127 51.27959 
L 112.649541 51.543139 
L 113.612493 51.814511 
L 114.577796 52.078414 
L 115.53634 52.363788 
L 116.502487 52.625011 
L 117.461826 52.907858 
L 118.423908 53.181993 
L 119.380752 53.472767 
L 120.339053 53.758911 
L 121.294079 54.055458 
L 122.245951 54.362025 
L 124.1344 54.969846 
L 123.173175 57.117008 
L 122.206809 57.377537 
L 121.241846 57.642521 
L 120.282821 57.926364 
L 119.318279 58.192685 
L 118.34261 58.423662 
L 117.377303 58.687554 
L 116.41131 58.949266 
L 115.445337 59.21104 
L 114.467263 59.434377 
L 113.502286 59.699315 
L 112.525761 59.927574 
L 111.55629 60.178236 
L 110.592139 60.4458 
L 109.626158 60.707548 
L 107.720029 61.25921 
L 108.661038 61.091863 
L 109.599293 61.441683 
L 110.524479 61.833017 
L 111.463756 62.179592 
L 112.389987 62.567607 
L 113.329918 62.912102 
L 114.246809 63.329785 
L 115.178823 63.699429 
L 116.112273 64.064514 
L 117.048634 64.420352 
L 117.97614 64.804315 
L 118.919503 65.13791 
L 119.865197 65.464102 
L 120.798625 65.829256 
L 121.743214 66.158956 
L 123.625335 66.786877 
L 122.653217 65.665378 
L 121.69156 65.940864 
L 120.729338 66.214553 
L 119.769905 66.497104 
L 118.805829 66.764904 
L 117.844483 67.041376 
L 116.886159 67.32745 
L 115.923792 67.600679 
L 114.960889 67.872204 
L 114.002405 68.157769 
L 113.047761 68.455529 
L 112.094354 68.757221 
L 111.141393 69.060329 
L 110.189004 69.365252 
L 109.238604 69.676495 
L 107.351991 70.290149 
L 108.318538 72.379804 
L 109.28145 72.651302 
L 110.24736 72.913278 
L 111.214813 73.170352 
L 112.178307 73.44 
L 113.154979 73.66779 
L 114.123451 73.921627 
L 115.573409 74.284171 
L 115.224513 74.755 
L 115.260924 75.755 
L 115.314804 76.755 
L 115.40362 77.755 
L 115.440889 78.755 
L 115.502617 79.755 
L 115.597796 80.755 
L 115.631862 81.755 
L 115.69275 82.755 
L 115.726093 83.755 
L 115.835785 84.755 
L 115.882699 85.755 
L 115.962591 86.755 
L 115.996016 87.755 
L 116.089443 88.755 
L 116.130305 89.755 
L 116.174301 90.755 
L 116.229442 91.755 
L 116.273661 92.755 
L 116.313746 93.755 
L 116.357485 94.755 
L 116.384373 95.755 
L 116.462612 96.755 
L 116.516231 97.755 
L 116.555739 98.755 
L 116.614221 99.755 
L 116.650793 100.755 
L 116.664415 101.755 
L 116.678511 102.755 
L 116.689224 104.355 
" style="fill:none;stroke:#ffffff;stroke-linecap:round;stroke-width:4.0;"/>
     <path clip-path="url(#p62077a2e78)" d="M 115.74 12.555 
L 115.69604 13.555 
L 115.664091 14.555 
L 115.610944 15.555 
L 115.55582 16.555 
L 115.522016 17.555 
L 115.402537 18.555 
L 115.345338 19.555 
L 115.263678 20.555 
L 115.23507 21.555 
L 115.207042 22.555 
L 115.113891 23.555 
L 115.033793 24.555 
L 114.985141 25.555 
L 114.946554 26.555 
L 114.889891 27.555 
L 114.86918 28.555 
L 114.829713 29.555 
L 114.81508 30.555 
L 114.786822 31.555 
L 114.772535 32.555 
L 114.756098 33.555 
L 114.742381 34.555 
L 114.740238 35.555 
L 114.740277 36.555 
L 114.74293 37.555 
L 114.750227 38.555 
L 114.755267 39.555 
L 114.784821 40.555 
L 114.794776 41.555 
L 114.832512 43.155 
L 116.435668 44.27539 
L 117.399181 44.544979 
L 118.358876 44.826699 
L 119.335987 45.053094 
L 120.298481 45.32592 
L 121.275453 45.552755 
L 122.238434 45.824036 
L 123.685282 46.196459 
L 122.754206 45.586166 
L 121.834509 45.994935 
L 120.892238 46.332001 
L 119.956614 46.690179 
L 119.020503 47.04681 
L 118.102669 47.461498 
L 117.166438 47.817745 
L 116.223357 48.152236 
L 115.305677 48.567415 
L 114.367722 48.918188 
L 113.437273 49.292802 
L 112.492717 49.62261 
L 111.551045 49.961575 
L 110.61377 50.31451 
L 109.669617 50.645595 
L 107.792055 51.287999 
L 108.76972 50.546639 
L 109.735212 50.80994 
L 110.709912 51.043996 
L 111.684127 51.27959 
L 112.649541 51.543139 
L 113.612493 51.814511 
L 114.577796 52.078414 
L 115.53634 52.363788 
L 116.502487 52.625011 
L 117.461826 52.907858 
L 118.423908 53.181993 
L 119.380752 53.472767 
L 120.339053 53.758911 
L 121.294079 54.055458 
L 122.245951 54.362025 
L 124.1344 54.969846 
L 123.173175 57.117008 
L 122.206809 57.377537 
L 121.241846 57.642521 
L 120.282821 57.926364 
L 119.318279 58.192685 
L 118.34261 58.423662 
L 117.377303 58.687554 
L 116.41131 58.949266 
L 115.445337 59.21104 
L 114.467263 59.434377 
L 113.502286 59.699315 
L 112.525761 59.927574 
L 111.55629 60.178236 
L 110.592139 60.4458 
L 109.626158 60.707548 
L 107.720029 61.25921 
L 108.661038 61.091863 
L 109.599293 61.441683 
L 110.524479 61.833017 
L 111.463756 62.179592 
L 112.389987 62.567607 
L 113.329918 62.912102 
L 114.246809 63.329785 
L 115.178823 63.699429 
L 116.112273 64.064514 
L 117.048634 64.420352 
L 117.97614 64.804315 
L 118.919503 65.13791 
L 119.865197 65.464102 
L 120.798625 65.829256 
L 121.743214 66.158956 
L 123.625335 66.786877 
L 122.653217 65.665378 
L 121.69156 65.940864 
L 120.729338 66.214553 
L 119.769905 66.497104 
L 118.805829 66.764904 
L 117.844483 67.041376 
L 116.886159 67.32745 
L 115.923792 67.600679 
L 114.960889 67.872204 
L 114.002405 68.157769 
L 113.047761 68.455529 
L 112.094354 68.757221 
L 111.141393 69.060329 
L 110.189004 69.365252 
L 109.238604 69.676495 
L 107.351991 70.290149 
L 108.318538 72.379804 
L 109.28145 72.651302 
L 110.24736 72.913278 
L 111.214813 73.170352 
L 112.178307 73.44 
L 113.154979 73.66779 
L 114.123451 73.921627 
L 115.573409 74.284171 
L 115.224513 74.755 
L 115.260924 75.755 
L 115.314804 76.755 
L 115.40362 77.755 
L 115.440889 78.755 
L 115.502617 79.755 
L 115.597796 80.755 
L 115.631862 81.755 
L 115.69275 82.755 
L 115.726093 83.755 
L 115.835785 84.755 
L 115.882699 85.755 
L 115.962591 86.755 
L 115.996016 87.755 
L 116.089443 88.755 
L 116.130305 89.755 
L 116.174301 90.755 
L 116.229442 91.755 
L 116.273661 92.755 
L 116.313746 93.755 
L 116.357485 94.755 
L 116.384373 95.755 
L 116.462612 96.755 
L 116.516231 97.755 
L 116.555739 98.755 
L 116.614221 99.755 
L 116.650793 100.755 
L 116.664415 101.755 
L 116.678511 102.755 
L 116.689224 104.355 
" style="fill:none;stroke:#000000;stroke-linecap:round;stroke-width:1.5;"/>
     <path clip-path="url(#p62077a2e78)" d="M 115.74 104.355 
" style="fill:none;stroke:#ffffff;stroke-linecap:round;stroke-width:4.0;"/>
     <path clip-path="url(#p62077a2e78)" d="M 115.74 104.355 
" style="fill:none;stroke:#000000;stroke-linecap:round;stroke-width:1.5;"/>
     <path clip-path="url(#p62077a2e78)" d="M 115.74 12.555 
L 116.74 12.59896 
L 117.74 12.630909 
L 118.74 12.684056 
L 119.74 12.73918 
L 120.74 12.772984 
L 121.74 12.892463 
L 122.74 12.949662 
L 123.74 13.031322 
L 124.74 13.05993 
L 125.74 13.087958 
L 126.74 13.181109 
L 127.74 13.261207 
L 128.74 13.309859 
L 129.74 13.348446 
L 130.74 13.405109 
L 131.74 13.42582 
L 132.74 13.465287 
L 133.74 13.47992 
L 134.74 13.508178 
L 135.74 13.522465 
L 136.74 13.538902 
L 137.74 13.552619 
L 138.74 13.554762 
L 139.74 13.554723 
L 140.74 13.55207 
L 141.74 13.544773 
L 142.74 13.539733 
L 143.74 13.510179 
L 144.74 13.500224 
L 145.74 13.462488 
L 146.74 13.414783 
L 147.74 13.382602 
L 148.74 13.363137 
L 149.74 13.285672 
L 150.74 13.256883 
L 151.74 13.179878 
L 152.74 13.149471 
L 153.74 13.070237 
L 154.74 12.994398 
L 155.74 12.880666 
L 156.74 12.842107 
L 157.74 12.781414 
L 158.74 12.722342 
L 159.74 12.602405 
L 160.74 12.543736 
L 161.74 12.507876 
L 162.74 12.387424 
L 164.34 12.334494 
L 165.34 12.256569 
L 166.34 12.22562 
L 167.34 12.185068 
L 168.34 12.129873 
L 169.34 12.097583 
L 170.34 12.048632 
L 171.34 11.969323 
L 172.34 11.93055 
L 173.34 11.861115 
L 174.34 11.793293 
L 175.34 11.754778 
L 176.34 11.724466 
L 177.34 11.686323 
L 178.34 11.670689 
L 179.34 11.629736 
L 180.34 11.611454 
L 181.34 11.584037 
L 182.34 11.574066 
L 183.34 11.55924 
L 184.34 11.55532 
L 185.34 11.561904 
L 186.34 11.5746 
L 187.34 11.599165 
L 188.34 11.640846 
L 189.34 11.677855 
L 190.34 11.695094 
L 191.34 11.730703 
L 192.34 11.803365 
L 193.34 11.84152 
L 194.34 11.88196 
L 195.34 11.922335 
L 196.34 12.003007 
L 197.34 12.040066 
L 198.34 12.115577 
L 199.34 12.167602 
L 200.34 12.201907 
L 201.34 12.242309 
L 202.34 12.288491 
L 203.34 12.33125 
L 204.34 12.383181 
L 205.34 12.478635 
L 206.34 12.527164 
L 207.34 12.619137 
L 208.34 12.665485 
L 209.34 12.788563 
L 210.34 12.861277 
L 211.34 12.929211 
L 212.94 12.987451 
" style="fill:none;stroke:#ffffff;stroke-linecap:round;stroke-width:4.0;"/>
     <path clip-path="url(#p62077a2e78)" d="M 115.74 12.555 
L 116.74 12.59896 
L 117.74 12.630909 
L 118.74 12.684056 
L 119.74 12.73918 
L 120.74 12.772984 
L 121.74 12.892463 
L 122.74 12.949662 
L 123.74 13.031322 
L 124.74 13.05993 
L 125.74 13.087958 
L 126.74 13.181109 
L 127.74 13.261207 
L 128.74 13.309859 
L 129.74 13.348446 
L 130.74 13.405109 
L 131.74 13.42582 
L 132.74 13.465287 
L 133.74 13.47992 
L 134.74 13.508178 
L 135.74 13.522465 
L 136.74 13.538902 
L 137.74 13.552619 
L 138.74 13.554762 
L 139.74 13.554723 
L 140.74 13.55207 
L 141.74 13.544773 
L 142.74 13.539733 
L 143.74 13.510179 
L 144.74 13.500224 
L 145.74 13.462488 
L 146.74 13.414783 
L 147.74 13.382602 
L 148.74 13.363137 
L 149.74 13.285672 
L 150.74 13.256883 
L 151.74 13.179878 
L 152.74 13.149471 
L 153.74 13.070237 
L 154.74 12.994398 
L 155.74 12.880666 
L 156.74 12.842107 
L 157.74 12.781414 
L 158.74 12.722342 
L 159.74 12.602405 
L 160.74 12.543736 
L 161.74 12.507876 
L 162.74 12.387424 
L 164.34 12.334494 
L 165.34 12.256569 
L 166.34 12.22562 
L 167.34 12.185068 
L 168.34 12.129873 
L 169.34 12.097583 
L 170.34 12.048632 
L 171.34 11.969323 
L 172.34 11.93055 
L 173.34 11.861115 
L 174.34 11.793293 
L 175.34 11.754778 
L 176.34 11.724466 
L 177.34 11.686323 
L 178.34 11.670689 
L 179.34 11.629736 
L 180.34 11.611454 
L 181.34 11.584037 
L 182.34 11.574066 
L 183.34 11.55924 
L 184.34 11.55532 
L 185.34 11.561904 
L 186.34 11.5746 
L 187.34 11.599165 
L 188.34 11.640846 
L 189.34 11.677855 
L 190.34 11.695094 
L 191.34 11.730703 
L 192.34 11.803365 
L 193.34 11.84152 
L 194.34 11.88196 
L 195.34 11.922335 
L 196.34 12.003007 
L 197.34 12.040066 
L 198.34 12.115577 
L 199.34 12.167602 
L 200.34 12.201907 
L 201.34 12.242309 
L 202.34 12.288491 
L 203.34 12.33125 
L 204.34 12.383181 
L 205.34 12.478635 
L 206.34 12.527164 
L 207.34 12.619137 
L 208.34 12.665485 
L 209.34 12.788563 
L 210.34 12.861277 
L 211.34 12.929211 
L 212.94 12.987451 
" style="fill:none;stroke:#000000;stroke-linecap:round;stroke-width:1.5;"/>
     <path clip-path="url(#p62077a2e78)" d="M 212.94 12.555 
L 212.89604 13.555 
L 212.864091 14.555 
L 212.810944 15.555 
L 212.75582 16.555 
L 212.722016 17.555 
L 212.602537 18.555 
L 212.545338 19.555 
L 212.463678 20.555 
L 212.43507 21.555 
L 212.407042 22.555 
L 212.313891 23.555 
L 212.233793 24.555 
L 212.185141 25.555 
L 212.146554 26.555 
L 212.089891 27.555 
L 212.06918 28.555 
L 212.029713 29.555 
L 212.01508 30.555 
L 211.986822 31.555 
L 211.972535 32.555 
L 211.956098 33.555 
L 211.942381 34.555 
L 211.940238 35.555 
L 211.940277 36.555 
L 211.94293 37.555 
L 211.950227 38.555 
L 211.955267 39.555 
L 211.984821 40.555 
L 211.994776 41.555 
L 212.032512 43.155 
L 212.94 43.155 
M 212.94 73.755 
L 212.94 73.755 
L 212.846275 74.755 
L 212.726125 75.755 
L 212.686006 76.755 
L 212.587848 77.755 
L 212.552205 78.755 
L 212.466235 79.755 
L 212.392046 80.755 
L 212.293392 81.755 
L 212.263028 82.755 
L 212.218164 83.755 
L 212.177795 84.755 
L 212.105391 85.755 
L 212.074519 86.755 
L 212.057108 87.755 
L 212.006801 88.755 
L 211.988776 89.755 
L 211.967 90.755 
L 211.959994 91.755 
L 211.952302 92.755 
L 211.944686 93.755 
L 211.941852 94.755 
L 211.940012 95.755 
L 211.944026 96.755 
L 211.949573 97.755 
L 211.966544 98.755 
L 211.993955 99.755 
L 212.015744 100.755 
L 212.037009 101.755 
L 212.070484 102.755 
L 212.086987 104.355 
" style="fill:none;stroke:#ffffff;stroke-linecap:round;stroke-width:4.0;"/>
     <path clip-path="url(#p62077a2e78)" d="M 212.94 12.555 
L 212.89604 13.555 
L 212.864091 14.555 
L 212.810944 15.555 
L 212.75582 16.555 
L 212.722016 17.555 
L 212.602537 18.555 
L 212.545338 19.555 
L 212.463678 20.555 
L 212.43507 21.555 
L 212.407042 22.555 
L 212.313891 23.555 
L 212.233793 24.555 
L 212.185141 25.555 
L 212.146554 26.555 
L 212.089891 27.555 
L 212.06918 28.555 
L 212.029713 29.555 
L 212.01508 30.555 
L 211.986822 31.555 
L 211.972535 32.555 
L 211.956098 33.555 
L 211.942381 34.555 
L 211.940238 35.555 
L 211.940277 36.555 
L 211.94293 37.555 
L 211.950227 38.555 
L 211.955267 39.555 
L 211.984821 40.555 
L 211.994776 41.555 
L 212.032512 43.155 
L 212.94 43.155 
M 212.94 73.755 
L 212.94 73.755 
L 212.846275 74.755 
L 212.726125 75.755 
L 212.686006 76.755 
L 212.587848 77.755 
L 212.552205 78.755 
L 212.466235 79.755 
L 212.392046 80.755 
L 212.293392 81.755 
L 212.263028 82.755 
L 212.218164 83.755 
L 212.177795 84.755 
L 212.105391 85.755 
L 212.074519 86.755 
L 212.057108 87.755 
L 212.006801 88.755 
L 211.988776 89.755 
L 211.967 90.755 
L 211.959994 91.755 
L 211.952302 92.755 
L 211.944686 93.755 
L 211.941852 94.755 
L 211.940012 95.755 
L 211.944026 96.755 
L 211.949573 97.755 
L 211.966544 98.755 
L 211.993955 99.755 
L 212.015744 100.755 
L 212.037009 101.755 
L 212.070484 102.755 
L 212.086987 104.355 
" style="fill:none;stroke:#000000;stroke-linecap:round;stroke-width:1.5;"/>
     <path clip-path="url(#p62077a2e78)" d="M 212.94 104.355 
L 211.94 104.31104 
L 210.94 104.279091 
L 209.94 104.225944 
L 208.94 104.17082 
L 207.94 104.137016 
L 206.94 104.017537 
L 205.94 103.960338 
L 204.94 103.878678 
L 203.94 103.85007 
L 202.94 103.822042 
L 201.94 103.728891 
L 200.94 103.648793 
L 199.94 103.600141 
L 198.94 103.561554 
L 197.94 103.504891 
L 196.94 103.48418 
L 195.94 103.444713 
L 194.94 103.43008 
L 193.94 103.401822 
L 192.94 103.387535 
L 191.94 103.371098 
L 190.94 103.357381 
L 189.94 103.355238 
L 188.94 103.355277 
L 187.94 103.35793 
L 186.94 103.365227 
L 185.94 103.370267 
L 184.94 103.399821 
L 183.94 103.409776 
L 182.94 103.447512 
L 181.94 103.495217 
L 180.94 103.527398 
L 179.94 103.546863 
L 178.94 103.624328 
L 177.94 103.653117 
L 176.94 103.730122 
L 175.94 103.760529 
L 174.94 103.839763 
L 173.94 103.915602 
L 172.94 104.029334 
L 171.94 104.067893 
L 170.94 104.128586 
L 169.94 104.187658 
L 168.94 104.307595 
L 167.94 104.366264 
L 166.94 104.402124 
L 165.94 104.522576 
L 164.34 104.575506 
L 163.34 104.653431 
L 162.34 104.68438 
L 161.34 104.724932 
L 160.34 104.780127 
L 159.34 104.812417 
L 158.34 104.861368 
L 157.34 104.940677 
L 156.34 104.97945 
L 155.34 105.048885 
L 154.34 105.116707 
L 153.34 105.155222 
L 152.34 105.185534 
L 151.34 105.223677 
L 150.34 105.239311 
L 149.34 105.280264 
L 148.34 105.298546 
L 147.34 105.325963 
L 146.34 105.335934 
L 145.34 105.35076 
L 144.34 105.35468 
L 143.34 105.348096 
L 142.34 105.3354 
L 141.34 105.310835 
L 140.34 105.269154 
L 139.34 105.232145 
L 138.34 105.214906 
L 137.34 105.179297 
L 136.34 105.106635 
L 135.34 105.06848 
L 134.34 105.02804 
L 133.34 104.987665 
L 132.34 104.906993 
L 131.34 104.869934 
L 130.34 104.794423 
L 129.34 104.742398 
L 128.34 104.708093 
L 127.34 104.667691 
L 126.34 104.621509 
L 125.34 104.57875 
L 124.34 104.526819 
L 123.34 104.431365 
L 122.34 104.382836 
L 121.34 104.290863 
L 120.34 104.244515 
L 119.34 104.121437 
L 118.34 104.048723 
L 117.34 103.980789 
L 115.74 103.922549 
" style="fill:none;stroke:#ffffff;stroke-linecap:round;stroke-width:4.0;"/>
     <path clip-path="url(#p62077a2e78)" d="M 212.94 104.355 
L 211.94 104.31104 
L 210.94 104.279091 
L 209.94 104.225944 
L 208.94 104.17082 
L 207.94 104.137016 
L 206.94 104.017537 
L 205.94 103.960338 
L 204.94 103.878678 
L 203.94 103.85007 
L 202.94 103.822042 
L 201.94 103.728891 
L 200.94 103.648793 
L 199.94 103.600141 
L 198.94 103.561554 
L 197.94 103.504891 
L 196.94 103.48418 
L 195.94 103.444713 
L 194.94 103.43008 
L 193.94 103.401822 
L 192.94 103.387535 
L 191.94 103.371098 
L 190.94 103.357381 
L 189.94 103.355238 
L 188.94 103.355277 
L 187.94 103.35793 
L 186.94 103.365227 
L 185.94 103.370267 
L 184.94 103.399821 
L 183.94 103.409776 
L 182.94 103.447512 
L 181.94 103.495217 
L 180.94 103.527398 
L 179.94 103.546863 
L 178.94 103.624328 
L 177.94 103.653117 
L 176.94 103.730122 
L 175.94 103.760529 
L 174.94 103.839763 
L 173.94 103.915602 
L 172.94 104.029334 
L 171.94 104.067893 
L 170.94 104.128586 
L 169.94 104.187658 
L 168.94 104.307595 
L 167.94 104.366264 
L 166.94 104.402124 
L 165.94 104.522576 
L 164.34 104.575506 
L 163.34 104.653431 
L 162.34 104.68438 
L 161.34 104.724932 
L 160.34 104.780127 
L 159.34 104.812417 
L 158.34 104.861368 
L 157.34 104.940677 
L 156.34 104.97945 
L 155.34 105.048885 
L 154.34 105.116707 
L 153.34 105.155222 
L 152.34 105.185534 
L 151.34 105.223677 
L 150.34 105.239311 
L 149.34 105.280264 
L 148.34 105.298546 
L 147.34 105.325963 
L 146.34 105.335934 
L 145.34 105.35076 
L 144.34 105.35468 
L 143.34 105.348096 
L 142.34 105.3354 
L 141.34 105.310835 
L 140.34 105.269154 
L 139.34 105.232145 
L 138.34 105.214906 
L 137.34 105.179297 
L 136.34 105.106635 
L 135.34 105.06848 
L 134.34 105.02804 
L 133.34 104.987665 
L 132.34 104.906993 
L 131.34 104.869934 
L 130.34 104.794423 
L 129.34 104.742398 
L 128.34 104.708093 
L 127.34 104.667691 
L 126.34 104.621509 
L 125.34 104.57875 
L 124.34 104.526819 
L 123.34 104.431365 
L 122.34 104.382836 
L 121.34 104.290863 
L 120.34 104.244515 
L 119.34 104.121437 
L 118.34 104.048723 
L 117.34 103.980789 
L 115.74 103.922549 
" style="fill:none;stroke:#000000;stroke-linecap:round;stroke-width:1.5;"/>
     <path clip-path="url(#p62077a2e78)" d="M 115.74 104.355 
L 114.74 104.31104 
L 113.74 104.279091 
L 112.74 104.225944 
L 111.74 104.17082 
L 110.74 104.137016 
L 109.74 104.017537 
L 108.74 103.960338 
L 107.74 103.878678 
L 106.74 103.85007 
L 105.74 103.822042 
L 104.74 103.728891 
L 103.74 103.648793 
L 102.74 103.600141 
L 101.74 103.561554 
L 100.74 103.504891 
L 99.74 103.48418 
L 98.74 103.444713 
L 97.74 103.43008 
L 96.74 103.401822 
L 95.74 103.387535 
L 94.74 103.371098 
L 93.74 103.357381 
L 92.74 103.355238 
L 91.74 103.355277 
L 90.74 103.35793 
L 89.74 103.365227 
L 88.74 103.370267 
L 87.74 103.399821 
L 86.74 103.409776 
L 85.74 103.447512 
L 84.74 103.495217 
L 83.34 103.527398 
L 83.34 104.355 
M 50.94 104.355 
L 50.94 104.355 
L 49.94 104.192775 
L 48.94 104.092119 
L 47.94 104.055302 
L 46.94 103.965859 
L 45.94 103.887859 
L 44.94 103.782734 
L 43.94 103.749991 
L 42.94 103.701205 
L 41.94 103.656822 
L 40.94 103.575693 
L 39.94 103.54028 
L 38.94 103.520005 
L 37.94 103.459589 
L 36.94 103.436878 
L 35.94 103.407915 
L 34.94 103.397956 
L 33.94 103.386305 
L 32.94 103.37313 
L 31.94 103.366946 
L 30.94 103.359881 
L 29.94 103.355008 
L 28.94 103.355995 
L 27.94 103.364378 
L 26.94 103.382749 
L 25.94 103.399031 
L 24.94 103.415714 
L 23.94 103.44302 
L 22.94 103.456828 
L 21.94 103.503479 
L 20.94 103.531568 
L 19.94 103.589777 
L 18.54 103.620181 
" style="fill:none;stroke:#ffffff;stroke-linecap:round;stroke-width:4.0;"/>
     <path clip-path="url(#p62077a2e78)" d="M 115.74 104.355 
L 114.74 104.31104 
L 113.74 104.279091 
L 112.74 104.225944 
L 111.74 104.17082 
L 110.74 104.137016 
L 109.74 104.017537 
L 108.74 103.960338 
L 107.74 103.878678 
L 106.74 103.85007 
L 105.74 103.822042 
L 104.74 103.728891 
L 103.74 103.648793 
L 102.74 103.600141 
L 101.74 103.561554 
L 100.74 103.504891 
L 99.74 103.48418 
L 98.74 103.444713 
L 97.74 103.43008 
L 96.74 103.401822 
L 95.74 103.387535 
L 94.74 103.371098 
L 93.74 103.357381 
L 92.74 103.355238 
L 91.74 103.355277 
L 90.74 103.35793 
L 89.74 103.365227 
L 88.74 103.370267 
L 87.74 103.399821 
L 86.74 103.409776 
L 85.74 103.447512 
L 84.74 103.495217 
L 83.34 103.527398 
L 83.34 104.355 
M 50.94 104.355 
L 50.94 104.355 
L 49.94 104.192775 
L 48.94 104.092119 
L 47.94 104.055302 
L 46.94 103.965859 
L 45.94 103.887859 
L 44.94 103.782734 
L 43.94 103.749991 
L 42.94 103.701205 
L 41.94 103.656822 
L 40.94 103.575693 
L 39.94 103.54028 
L 38.94 103.520005 
L 37.94 103.459589 
L 36.94 103.436878 
L 35.94 103.407915 
L 34.94 103.397956 
L 33.94 103.386305 
L 32.94 103.37313 
L 31.94 103.366946 
L 30.94 103.359881 
L 29.94 103.355008 
L 28.94 103.355995 
L 27.94 103.364378 
L 26.94 103.382749 
L 25.94 103.399031 
L 24.94 103.415714 
L 23.94 103.44302 
L 22.94 103.456828 
L 21.94 103.503479 
L 20.94 103.531568 
L 19.94 103.589777 
L 18.54 103.620181 
" style="fill:none;stroke:#000000;stroke-linecap:round;stroke-width:1.5;"/>
     <path clip-path="url(#p62077a2e78)" d="M 18.54 104.355 
L 18.49604 105.355 
L 18.464091 106.355 
L 18.410944 107.355 
L 18.35582 108.355 
L 18.322016 109.355 
L 18.202537 110.355 
L 18.145338 111.355 
L 18.063678 112.355 
L 18.03507 113.355 
L 18.007042 114.355 
L 17.913891 115.355 
L 17.833793 116.595 
L 17.54 115.840141 
L 16.54 115.801554 
L 15.54 115.744891 
L 14.54 115.72418 
L 13.54 115.684713 
L 12.54 115.67008 
L 11.54 115.641822 
L 10.44 115.627535 
L 11.44 117.578902 
L 12.44 117.592619 
L 13.44 117.594762 
L 14.44 117.594723 
L 15.44 117.59207 
L 16.44 117.584773 
L 17.44 117.579733 
L 18.44 117.550179 
L 19.44 117.540224 
L 20.44 117.502488 
L 21.44 117.454783 
L 22.44 117.422602 
L 23.44 117.403137 
L 24.44 117.325672 
L 25.44 117.296883 
L 26.64 117.219878 
M 12.87 120.267 
L 13.87 120.305359 
L 14.87 120.400293 
L 15.87 120.485275 
L 16.87 120.603558 
L 17.87 120.641419 
L 18.87 120.698885 
L 19.87 120.752419 
L 20.87 120.854165 
L 21.87 120.900632 
L 22.87 120.927975 
L 24.21 121.013872 
M 16.92 123.939 
L 17.92 123.992937 
L 18.92 124.073271 
L 20.16 124.105498 
" style="fill:none;stroke:#ffffff;stroke-linecap:round;stroke-width:4.0;"/>
     <path clip-path="url(#p62077a2e78)" d="M 18.54 104.355 
L 18.49604 105.355 
L 18.464091 106.355 
L 18.410944 107.355 
L 18.35582 108.355 
L 18.322016 109.355 
L 18.202537 110.355 
L 18.145338 111.355 
L 18.063678 112.355 
L 18.03507 113.355 
L 18.007042 114.355 
L 17.913891 115.355 
L 17.833793 116.595 
L 17.54 115.840141 
L 16.54 115.801554 
L 15.54 115.744891 
L 14.54 115.72418 
L 13.54 115.684713 
L 12.54 115.67008 
L 11.54 115.641822 
L 10.44 115.627535 
L 11.44 117.578902 
L 12.44 117.592619 
L 13.44 117.594762 
L 14.44 117.594723 
L 15.44 117.59207 
L 16.44 117.584773 
L 17.44 117.579733 
L 18.44 117.550179 
L 19.44 117.540224 
L 20.44 117.502488 
L 21.44 117.454783 
L 22.44 117.422602 
L 23.44 117.403137 
L 24.44 117.325672 
L 25.44 117.296883 
L 26.64 117.219878 
M 12.87 120.267 
L 13.87 120.305359 
L 14.87 120.400293 
L 15.87 120.485275 
L 16.87 120.603558 
L 17.87 120.641419 
L 18.87 120.698885 
L 19.87 120.752419 
L 20.87 120.854165 
L 21.87 120.900632 
L 22.87 120.927975 
L 24.21 121.013872 
M 16.92 123.939 
L 17.92 123.992937 
L 18.92 124.073271 
L 20.16 124.105498 
" style="fill:none;stroke:#000000;stroke-linecap:round;stroke-width:1.5;"/>
     <g id="patch_3">
      <path clip-path="url(#p62077a2e78)" d="M 115.74 14.85 
L 116.699041 14.772703 
L 117.502658 14.239388 
L 118.142355 13.536657 
L 118.352347 12.580922 
L 118.257794 11.623782 
L 117.720736 10.720076 
L 116.924295 10.060757 
L 115.799919 9.787462 
L 114.722971 9.879989 
L 113.710076 10.499852 
L 112.951055 11.260916 
L 112.610822 12.455605 
L 112.690675 13.561781 
L 113.404617 14.676536 
L 114.289376 15.418704 
L 115.630455 15.713902 
L 115.74 14.85 
z
" style="stroke:#ffffff;stroke-linejoin:miter;stroke-width:4.0;"/>
      <path clip-path="url(#p62077a2e78)" d="M 115.74 14.85 
L 116.699041 14.772703 
L 117.502658 14.239388 
L 118.142355 13.536657 
L 118.352347 12.580922 
L 118.257794 11.623782 
L 117.720736 10.720076 
L 116.924295 10.060757 
L 115.799919 9.787462 
L 114.722971 9.879989 
L 113.710076 10.499852 
L 112.951055 11.260916 
L 112.610822 12.455605 
L 112.690675 13.561781 
L 113.404617 14.676536 
L 114.289376 15.418704 
L 115.630455 15.713902 
L 115.74 14.85 
z
" style="stroke:#000000;stroke-linejoin:miter;stroke-width:1.5;"/>
      <g id="patch_4">
       <path clip-path="url(#p62077a2e78)" d="M 115.74 106.65 
L 116.699041 106.572703 
L 117.502658 106.039388 
L 118.142355 105.336657 
L 118.352347 104.380922 
L 118.257794 103.423782 
L 117.720736 102.520076 
L 116.924295 101.860757 
L 115.799919 101.587462 
L 114.722971 101.679989 
L 113.710076 102.299852 
L 112.951055 103.060916 
L 112.610822 104.255605 
L 112.690675 105.361781 
L 113.404617 106.476536 
L 114.289376 107.218704 
L 115.630455 107.513902 
L 115.74 106.65 
z
" style="stroke:#ffffff;stroke-linejoin:miter;stroke-width:4.0;"/>
       <path clip-path="url(#p62077a2e78)" d="M 115.74 106.65 
L 116.699041 106.572703 
L 117.502658 106.039388 
L 118.142355 105.336657 
L 118.352347 104.380922 
L 118.257794 103.423782 
L 117.720736 102.520076 
L 116.924295 101.860757 
L 115.799919 101.587462 
L 114.722971 101.679989 
L 113.710076 102.299852 
L 112.951055 103.060916 
L 112.610822 104.255605 
L 112.690675 105.361781 
L 113.404617 106.476536 
L 114.289376 107.218704 
L 115.630455 107.513902 
L 115.74 106.65 
z
" style="stroke:#000000;stroke-linejoin:miter;stroke-width:1.5;"/>
       <g id="patch_5">
        <path clip-path="url(#p62077a2e78)" d="M 212.94 73.755 
L 214.547007 73.74856 
L 215.542351 73.593693 
L 216.534851 73.460398 
L 217.693702 73.297708 
L 218.670223 72.955412 
L 219.645026 72.702363 
L 220.723821 72.341757 
L 221.680051 71.844384 
L 222.54148 71.335701 
L 223.50607 70.761367 
L 224.809735 69.742898 
L 225.994445 68.66287 
L 226.686177 67.784296 
L 227.29446 66.989639 
L 227.948932 66.160902 
L 228.453606 65.104562 
L 228.891398 64.204619 
L 229.311216 63.283829 
L 229.603772 62.13139 
L 229.824823 61.156023 
L 230.049234 60.175167 
L 230.137002 58.49007 
L 230.085803 56.903428 
L 229.857638 55.753232 
L 229.647968 54.775456 
L 229.4325 53.792707 
L 228.964344 52.686353 
L 228.535631 51.782429 
L 228.120097 50.85976 
L 227.419044 49.899091 
L 226.803312 49.109692 
L 226.168841 48.266836 
L 224.969223 47.067493 
L 223.705907 46.052097 
L 222.749904 45.472801 
L 221.862684 45.005071 
L 220.896827 44.43275 
L 219.836473 44.091638 
L 218.877569 43.797948 
L 217.778178 43.48999 
L 216.730156 43.325632 
L 215.736256 43.199752 
L 214.576673 43.040941 
L 212.941487 43.107618 
L 211.334725 43.216636 
L 210.360474 43.437204 
L 209.40018 43.741084 
L 208.261375 44.009952 
L 207.397915 44.435512 
L 206.477915 44.828651 
L 205.434733 45.28029 
L 204.680323 45.828408 
L 203.851345 46.388621 
L 202.927777 47.028094 
L 201.872701 48.075133 
L 200.830841 49.183657 
L 200.377321 49.961283 
L 199.855964 50.817313 
L 199.279245 51.700944 
L 198.984483 52.488784 
L 198.617767 53.419898 
L 198.225667 54.352845 
L 198.113955 55.167587 
L 197.924767 56.149698 
L 197.743259 57.139635 
L 197.720328 58.489484 
L 197.788486 59.936421 
L 197.978428 60.742744 
L 198.17906 61.722433 
L 198.374971 62.709321 
L 198.692816 63.444221 
L 199.056293 64.376756 
L 199.428817 65.318289 
L 199.904763 65.991545 
L 200.452435 66.828996 
L 201.001259 67.732322 
L 201.99172 68.771581 
L 203.103622 69.806055 
L 203.841264 70.307926 
L 204.644459 70.90908 
L 205.574365 71.538489 
L 206.391325 71.929311 
L 207.303647 72.342077 
L 208.349105 72.787898 
L 209.261118 72.994983 
L 210.235191 73.225882 
L 211.375882 73.484756 
L 212.945388 73.583266 
L 212.94 73.755 
L 212.94 73.755 
z
" style="fill:none;stroke:#ffffff;stroke-linejoin:miter;stroke-width:4.0;"/>
        <path clip-path="url(#p62077a2e78)" d="M 212.94 73.755 
L 214.547007 73.74856 
L 215.542351 73.593693 
L 216.534851 73.460398 
L 217.693702 73.297708 
L 218.670223 72.955412 
L 219.645026 72.702363 
L 220.723821 72.341757 
L 221.680051 71.844384 
L 222.54148 71.335701 
L 223.50607 70.761367 
L 224.809735 69.742898 
L 225.994445 68.66287 
L 226.686177 67.784296 
L 227.29446 66.989639 
L 227.948932 66.160902 
L 228.453606 65.104562 
L 228.891398 64.204619 
L 229.311216 63.283829 
L 229.603772 62.13139 
L 229.824823 61.156023 
L 230.049234 60.175167 
L 230.137002 58.49007 
L 230.085803 56.903428 
L 229.857638 55.753232 
L 229.647968 54.775456 
L 229.4325 53.792707 
L 228.964344 52.686353 
L 228.535631 51.782429 
L 228.120097 50.85976 
L 227.419044 49.899091 
L 226.803312 49.109692 
L 226.168841 48.266836 
L 224.969223 47.067493 
L 223.705907 46.052097 
L 222.749904 45.472801 
L 221.862684 45.005071 
L 220.896827 44.43275 
L 219.836473 44.091638 
L 218.877569 43.797948 
L 217.778178 43.48999 
L 216.730156 43.325632 
L 215.736256 43.199752 
L 214.576673 43.040941 
L 212.941487 43.107618 
L 211.334725 43.216636 
L 210.360474 43.437204 
L 209.40018 43.741084 
L 208.261375 44.009952 
L 207.397915 44.435512 
L 206.477915 44.828651 
L 205.434733 45.28029 
L 204.680323 45.828408 
L 203.851345 46.388621 
L 202.927777 47.028094 
L 201.872701 48.075133 
L 200.830841 49.183657 
L 200.377321 49.961283 
L 199.855964 50.817313 
L 199.279245 51.700944 
L 198.984483 52.488784 
L 198.617767 53.419898 
L 198.225667 54.352845 
L 198.113955 55.167587 
L 197.924767 56.149698 
L 197.743259 57.139635 
L 197.720328 58.489484 
L 197.788486 59.936421 
L 197.978428 60.742744 
L 198.17906 61.722433 
L 198.374971 62.709321 
L 198.692816 63.444221 
L 199.056293 64.376756 
L 199.428817 65.318289 
L 199.904763 65.991545 
L 200.452435 66.828996 
L 201.001259 67.732322 
L 201.99172 68.771581 
L 203.103622 69.806055 
L 203.841264 70.307926 
L 204.644459 70.90908 
L 205.574365 71.538489 
L 206.391325 71.929311 
L 207.303647 72.342077 
L 208.349105 72.787898 
L 209.261118 72.994983 
L 210.235191 73.225882 
L 211.375882 73.484756 
L 212.945388 73.583266 
L 212.94 73.755 
L 212.94 73.755 
z
" style="fill:none;stroke:#000000;stroke-linejoin:miter;stroke-width:1.5;"/>
        <g id="patch_6">
         <path clip-path="url(#p62077a2e78)" d="M 67.14 119.655 
L 68.747007 119.64856 
L 69.742351 119.493693 
L 70.734851 119.360398 
L 71.893702 119.197708 
L 72.870223 118.855412 
L 73.845026 118.602363 
L 74.923821 118.241757 
L 75.880051 117.744384 
L 76.74148 117.235701 
L 77.70607 116.661367 
L 79.009735 115.642898 
L 80.194445 114.56287 
L 80.886177 113.684296 
L 81.49446 112.889639 
L 82.148932 112.060902 
L 82.653606 111.004562 
L 83.091398 110.104619 
L 83.511216 109.183829 
L 83.803772 108.03139 
L 84.024823 107.056023 
L 84.249234 106.075167 
L 84.337002 104.39007 
L 84.285803 102.803428 
L 84.057638 101.653232 
L 83.847968 100.675456 
L 83.6325 99.692707 
L 83.164344 98.586353 
L 82.735631 97.682429 
L 82.320097 96.75976 
L 81.619044 95.799091 
L 81.003312 95.009692 
L 80.368841 94.166836 
L 79.169223 92.967493 
L 77.905907 91.952097 
L 76.949904 91.372801 
L 76.062684 90.905071 
L 75.096827 90.33275 
L 74.036473 89.991638 
L 73.077569 89.697948 
L 71.978178 89.38999 
L 70.930156 89.225632 
L 69.936256 89.099752 
L 68.776673 88.940941 
L 67.141487 89.007618 
L 65.534725 89.116636 
L 64.560474 89.337204 
L 63.60018 89.641084 
L 62.461375 89.909952 
L 61.597915 90.335512 
L 60.677915 90.728651 
L 59.634733 91.18029 
L 58.880323 91.728408 
L 58.051345 92.288621 
L 57.127777 92.928094 
L 56.072701 93.975133 
L 55.030841 95.083657 
L 54.577321 95.861283 
L 54.055964 96.717313 
L 53.479245 97.600944 
L 53.184483 98.388784 
L 52.817767 99.319898 
L 52.425667 100.252845 
L 52.313955 101.067587 
L 52.124767 102.049698 
L 51.943259 103.039635 
L 51.920328 104.389484 
L 51.988486 105.836421 
L 52.178428 106.642744 
L 52.37906 107.622433 
L 52.574971 108.609321 
L 52.892816 109.344221 
L 53.256293 110.276756 
L 53.628817 111.218289 
L 54.104763 111.891545 
L 54.652435 112.728996 
L 55.201259 113.632322 
L 56.19172 114.671581 
L 57.303622 115.706055 
L 58.041264 116.207926 
L 58.844459 116.80908 
L 59.774365 117.438489 
L 60.591325 117.829311 
L 61.503647 118.242077 
L 62.549105 118.687898 
L 63.461118 118.894983 
L 64.435191 119.125882 
L 65.575882 119.384756 
L 67.145388 119.483266 
L 67.14 119.655 
L 67.14 119.655 
z
" style="fill:none;stroke:#ffffff;stroke-linejoin:miter;stroke-width:4.0;"/>
         <path clip-path="url(#p62077a2e78)" d="M 67.14 119.655 
L 68.747007 119.64856 
L 69.742351 119.493693 
L 70.734851 119.360398 
L 71.893702 119.197708 
L 72.870223 118.855412 
L 73.845026 118.602363 
L 74.923821 118.241757 
L 75.880051 117.744384 
L 76.74148 117.235701 
L 77.70607 116.661367 
L 79.009735 115.642898 
L 80.194445 114.56287 
L 80.886177 113.684296 
L 81.49446 112.889639 
L 82.148932 112.060902 
L 82.653606 111.004562 
L 83.091398 110.104619 
L 83.511216 109.183829 
L 83.803772 108.03139 
L 84.024823 107.056023 
L 84.249234 106.075167 
L 84.337002 104.39007 
L 84.285803 102.803428 
L 84.057638 101.653232 
L 83.847968 100.675456 
L 83.6325 99.692707 
L 83.164344 98.586353 
L 82.735631 97.682429 
L 82.320097 96.75976 
L 81.619044 95.799091 
L 81.003312 95.009692 
L 80.368841 94.166836 
L 79.169223 92.967493 
L 77.905907 91.952097 
L 76.949904 91.372801 
L 76.062684 90.905071 
L 75.096827 90.33275 
L 74.036473 89.991638 
L 73.077569 89.697948 
L 71.978178 89.38999 
L 70.930156 89.225632 
L 69.936256 89.099752 
L 68.776673 88.940941 
L 67.141487 89.007618 
L 65.534725 89.116636 
L 64.560474 89.337204 
L 63.60018 89.641084 
L 62.461375 89.909952 
L 61.597915 90.335512 
L 60.677915 90.728651 
L 59.634733 91.18029 
L 58.880323 91.728408 
L 58.051345 92.288621 
L 57.127777 92.928094 
L 56.072701 93.975133 
L 55.030841 95.083657 
L 54.577321 95.861283 
L 54.055964 96.717313 
L 53.479245 97.600944 
L 53.184483 98.388784 
L 52.817767 99.319898 
L 52.425667 100.252845 
L 52.313955 101.067587 
L 52.124767 102.049698 
L 51.943259 103.039635 
L 51.920328 104.389484 
L 51.988486 105.836421 
L 52.178428 106.642744 
L 52.37906 107.622433 
L 52.574971 108.609321 
L 52.892816 109.344221 
L 53.256293 110.276756 
L 53.628817 111.218289 
L 54.104763 111.891545 
L 54.652435 112.728996 
L 55.201259 113.632322 
L 56.19172 114.671581 
L 57.303622 115.706055 
L 58.041264 116.207926 
L 58.844459 116.80908 
L 59.774365 117.438489 
L 60.591325 117.829311 
L 61.503647 118.242077 
L 62.549105 118.687898 
L 63.461118 118.894983 
L 64.435191 119.125882 
L 65.575882 119.384756 
L 67.145388 119.483266 
L 67.14 119.655 
L 67.14 119.655 
z
" style="fill:none;stroke:#000000;stroke-linejoin:miter;stroke-width:1.5;"/>
         <g id="text_1">
          <path d="M 40.185 52.105 
L 40.185 53.7675 
Q 39.3875 53.025 38.485 52.66 
Q 37.5825 52.2925 36.5675 52.2925 
Q 34.5675 52.2925 33.505 53.515 
Q 32.4425 54.7375 32.4425 57.05 
Q 32.4425 59.355 33.505 60.5775 
Q 34.5675 61.8 36.5675 61.8 
Q 37.5825 61.8 38.485 61.4325 
Q 39.3875 61.065 40.185 60.3225 
L 40.185 61.9725 
Q 39.3575 62.535 38.43 62.8175 
Q 37.505 63.0975 36.475 63.0975 
Q 33.825 63.0975 32.3 61.4775 
Q 30.7775 59.855 30.7775 57.05 
Q 30.7775 54.2375 32.3 52.6175 
Q 33.825 50.995 36.475 50.995 
Q 37.52 50.995 38.445 51.2725 
Q 39.3725 51.55 40.185 52.105 
M 46.536875 58.4725 
Q 44.794375 58.4725 44.121875 58.87 
Q 43.449375 59.2675 43.449375 60.23 
Q 43.449375 60.995 43.954375 61.445 
Q 44.459375 61.8925 45.324375 61.8925 
Q 46.521875 61.8925 47.244375 61.045 
Q 47.966875 60.1975 47.966875 58.7925 
L 47.966875 58.4725 
z
M 49.404375 57.8775 
L 49.404375 62.87 
L 47.966875 62.87 
L 47.966875 61.5425 
Q 47.474375 62.3375 46.739375 62.7175 
Q 46.004375 63.0975 44.941875 63.0975 
Q 43.599375 63.0975 42.804375 62.3425 
Q 42.011875 61.5875 42.011875 60.3225 
Q 42.011875 58.8475 42.999375 58.0975 
Q 43.989375 57.3475 45.949375 57.3475 
L 47.966875 57.3475 
L 47.966875 57.205 
Q 47.966875 56.2125 47.314375 55.67 
Q 46.661875 55.1275 45.481875 55.1275 
Q 44.731875 55.1275 44.019375 55.3075 
Q 43.309375 55.4875 42.654375 55.8475 
L 42.654375 54.5175 
Q 43.441875 54.2125 44.184375 54.0625 
Q 44.926875 53.91 45.629375 53.91 
Q 47.529375 53.91 48.466875 54.895 
Q 49.404375 55.8775 49.404375 57.8775 
M 53.754063 61.5575 
L 53.754063 66.1975 
L 52.309063 66.1975 
L 52.309063 54.12 
L 53.754063 54.12 
L 53.754063 55.4475 
Q 54.209063 54.6675 54.899063 54.29 
Q 55.591563 53.91 56.551563 53.91 
Q 58.146563 53.91 59.141563 55.175 
Q 60.139063 56.44 60.139063 58.5025 
Q 60.139063 60.565 59.141563 61.8325 
Q 58.146563 63.0975 56.551563 63.0975 
Q 55.591563 63.0975 54.899063 62.7175 
Q 54.209063 62.3375 53.754063 61.5575 
M 58.646563 58.5025 
Q 58.646563 56.9175 57.994063 56.015 
Q 57.341563 55.1125 56.201563 55.1125 
Q 55.059063 55.1125 54.406563 56.015 
Q 53.754063 56.9175 53.754063 58.5025 
Q 53.754063 60.0875 54.406563 60.99 
Q 55.059063 61.8925 56.201563 61.8925 
Q 57.341563 61.8925 57.994063 60.99 
Q 58.646563 60.0875 58.646563 58.5025 
M 62.722813 60.885 
L 64.372813 60.885 
L 64.372813 62.87 
L 62.722813 62.87 
z
" style="stroke:#ffffff;stroke-width:4.0;"/>
          <path d="M 40.185 52.105 
L 40.185 53.7675 
Q 39.3875 53.025 38.485 52.66 
Q 37.5825 52.2925 36.5675 52.2925 
Q 34.5675 52.2925 33.505 53.515 
Q 32.4425 54.7375 32.4425 57.05 
Q 32.4425 59.355 33.505 60.5775 
Q 34.5675 61.8 36.5675 61.8 
Q 37.5825 61.8 38.485 61.4325 
Q 39.3875 61.065 40.185 60.3225 
L 40.185 61.9725 
Q 39.3575 62.535 38.43 62.8175 
Q 37.505 63.0975 36.475 63.0975 
Q 33.825 63.0975 32.3 61.4775 
Q 30.7775 59.855 30.7775 57.05 
Q 30.7775 54.2375 32.3 52.6175 
Q 33.825 50.995 36.475 50.995 
Q 37.52 50.995 38.445 51.2725 
Q 39.3725 51.55 40.185 52.105 
M 46.536875 58.4725 
Q 44.794375 58.4725 44.121875 58.87 
Q 43.449375 59.2675 43.449375 60.23 
Q 43.449375 60.995 43.954375 61.445 
Q 44.459375 61.8925 45.324375 61.8925 
Q 46.521875 61.8925 47.244375 61.045 
Q 47.966875 60.1975 47.966875 58.7925 
L 47.966875 58.4725 
z
M 49.404375 57.8775 
L 49.404375 62.87 
L 47.966875 62.87 
L 47.966875 61.5425 
Q 47.474375 62.3375 46.739375 62.7175 
Q 46.004375 63.0975 44.941875 63.0975 
Q 43.599375 63.0975 42.804375 62.3425 
Q 42.011875 61.5875 42.011875 60.3225 
Q 42.011875 58.8475 42.999375 58.0975 
Q 43.989375 57.3475 45.949375 57.3475 
L 47.966875 57.3475 
L 47.966875 57.205 
Q 47.966875 56.2125 47.314375 55.67 
Q 46.661875 55.1275 45.481875 55.1275 
Q 44.731875 55.1275 44.019375 55.3075 
Q 43.309375 55.4875 42.654375 55.8475 
L 42.654375 54.5175 
Q 43.441875 54.2125 44.184375 54.0625 
Q 44.926875 53.91 45.629375 53.91 
Q 47.529375 53.91 48.466875 54.895 
Q 49.404375 55.8775 49.404375 57.8775 
M 53.754063 61.5575 
L 53.754063 66.1975 
L 52.309063 66.1975 
L 52.309063 54.12 
L 53.754063 54.12 
L 53.754063 55.4475 
Q 54.209063 54.6675 54.899063 54.29 
Q 55.591563 53.91 56.551563 53.91 
Q 58.146563 53.91 59.141563 55.175 
Q 60.139063 56.44 60.139063 58.5025 
Q 60.139063 60.565 59.141563 61.8325 
Q 58.146563 63.0975 56.551563 63.0975 
Q 55.591563 63.0975 54.899063 62.7175 
Q 54.209063 62.3375 53.754063 61.5575 
M 58.646563 58.5025 
Q 58.646563 56.9175 57.994063 56.015 
Q 57.341563 55.1125 56.201563 55.1125 
Q 55.059063 55.1125 54.406563 56.015 
Q 53.754063 56.9175 53.754063 58.5025 
Q 53.754063 60.0875 54.406563 60.99 
Q 55.059063 61.8925 56.201563 61.8925 
Q 57.341563 61.8925 57.994063 60.99 
Q 58.646563 60.0875 58.646563 58.5025 
M 62.722813 60.885 
L 64.372813 60.885 
L 64.372813 62.87 
L 62.722813 62.87 
z
"/>
         </g>
         <g id="text_2">
          <path d="M 137.165 61.5425 
L 139.7425 61.5425 
L 139.7425 52.6425 
L 136.9375 53.205 
L 136.9375 51.7675 
L 139.7275 51.205 
L 141.305 51.205 
L 141.305 61.5425 
L 143.8825 61.5425 
L 143.8825 62.87 
L 137.165 62.87 
z
M 150.444688 52.245 
Q 149.227188 52.245 148.612188 53.445 
Q 147.999688 54.6425 147.999688 57.05 
Q 147.999688 59.4475 148.612188 60.6475 
Q 149.227188 61.8475 150.444688 61.8475 
Q 151.672188 61.8475 152.284688 60.6475 
Q 152.899688 59.4475 152.899688 57.05 
Q 152.899688 54.6425 152.284688 53.445 
Q 151.672188 52.245 150.444688 52.245 
M 150.444688 50.995 
Q 152.407188 50.995 153.442188 52.5475 
Q 154.477188 54.0975 154.477188 57.05 
Q 154.477188 59.995 153.442188 61.5475 
Q 152.407188 63.0975 150.444688 63.0975 
Q 148.484688 63.0975 147.449688 61.5475 
Q 146.414688 59.995 146.414688 57.05 
Q 146.414688 54.0975 147.449688 52.5475 
Q 148.484688 50.995 150.444688 50.995 
M 163.859375 55.8 
Q 164.399375 54.83 165.149375 54.37 
Q 165.899375 53.91 166.914375 53.91 
Q 168.281875 53.91 169.024375 54.8675 
Q 169.766875 55.8225 169.766875 57.5875 
L 169.766875 62.87 
L 168.321875 62.87 
L 168.321875 57.635 
Q 168.321875 56.3775 167.874375 55.77 
Q 167.429375 55.16 166.516875 55.16 
Q 165.399375 55.16 164.749375 55.9025 
Q 164.101875 56.6425 164.101875 57.925 
L 164.101875 62.87 
L 162.656875 62.87 
L 162.656875 57.635 
Q 162.656875 56.37 162.211875 55.765 
Q 161.766875 55.16 160.836875 55.16 
Q 159.734375 55.16 159.084375 55.905 
Q 158.436875 56.65 158.436875 57.925 
L 158.436875 62.87 
L 156.991875 62.87 
L 156.991875 54.12 
L 158.436875 54.12 
L 158.436875 55.48 
Q 158.929375 54.675 159.616875 54.2925 
Q 160.304375 53.91 161.249375 53.91 
Q 162.204375 53.91 162.871875 54.395 
Q 163.539375 54.8775 163.859375 55.8 
M 176.595313 52.76 
L 174.452813 58.565 
L 178.742813 58.565 
z
M 175.702813 51.205 
L 177.492813 51.205 
L 181.937813 62.87 
L 180.297813 62.87 
L 179.235313 59.8775 
L 173.977813 59.8775 
L 172.915313 62.87 
L 171.250313 62.87 
z
" style="stroke:#ffffff;stroke-width:4.0;"/>
          <path d="M 137.165 61.5425 
L 139.7425 61.5425 
L 139.7425 52.6425 
L 136.9375 53.205 
L 136.9375 51.7675 
L 139.7275 51.205 
L 141.305 51.205 
L 141.305 61.5425 
L 143.8825 61.5425 
L 143.8825 62.87 
L 137.165 62.87 
z
M 150.444688 52.245 
Q 149.227188 52.245 148.612188 53.445 
Q 147.999688 54.6425 147.999688 57.05 
Q 147.999688 59.4475 148.612188 60.6475 
Q 149.227188 61.8475 150.444688 61.8475 
Q 151.672188 61.8475 152.284688 60.6475 
Q 152.899688 59.4475 152.899688 57.05 
Q 152.899688 54.6425 152.284688 53.445 
Q 151.672188 52.245 150.444688 52.245 
M 150.444688 50.995 
Q 152.407188 50.995 153.442188 52.5475 
Q 154.477188 54.0975 154.477188 57.05 
Q 154.477188 59.995 153.442188 61.5475 
Q 152.407188 63.0975 150.444688 63.0975 
Q 148.484688 63.0975 147.449688 61.5475 
Q 146.414688 59.995 146.414688 57.05 
Q 146.414688 54.0975 147.449688 52.5475 
Q 148.484688 50.995 150.444688 50.995 
M 163.859375 55.8 
Q 164.399375 54.83 165.149375 54.37 
Q 165.899375 53.91 166.914375 53.91 
Q 168.281875 53.91 169.024375 54.8675 
Q 169.766875 55.8225 169.766875 57.5875 
L 169.766875 62.87 
L 168.321875 62.87 
L 168.321875 57.635 
Q 168.321875 56.3775 167.874375 55.77 
Q 167.429375 55.16 166.516875 55.16 
Q 165.399375 55.16 164.749375 55.9025 
Q 164.101875 56.6425 164.101875 57.925 
L 164.101875 62.87 
L 162.656875 62.87 
L 162.656875 57.635 
Q 162.656875 56.37 162.211875 55.765 
Q 161.766875 55.16 160.836875 55.16 
Q 159.734375 55.16 159.084375 55.905 
Q 158.436875 56.65 158.436875 57.925 
L 158.436875 62.87 
L 156.991875 62.87 
L 156.991875 54.12 
L 158.436875 54.12 
L 158.436875 55.48 
Q 158.929375 54.675 159.616875 54.2925 
Q 160.304375 53.91 161.249375 53.91 
Q 162.204375 53.91 162.871875 54.395 
Q 163.539375 54.8775 163.859375 55.8 
M 176.595313 52.76 
L 174.452813 58.565 
L 178.742813 58.565 
z
M 175.702813 51.205 
L 177.492813 51.205 
L 181.937813 62.87 
L 180.297813 62.87 
L 179.235313 59.8775 
L 173.977813 59.8775 
L 172.915313 62.87 
L 171.250313 62.87 
z
"/>
         </g>
         <g id="text_3">
          <path d="M 212.045 62.87 
L 207.5925 51.205 
L 209.24 51.205 
L 212.9375 61.025 
L 216.64 51.205 
L 218.28 51.205 
L 213.835 62.87 
z
" style="stroke:#ffffff;stroke-width:4.0;"/>
          <path d="M 212.045 62.87 
L 207.5925 51.205 
L 209.24 51.205 
L 212.9375 61.025 
L 216.64 51.205 
L 218.28 51.205 
L 213.835 62.87 
z
"/>
         </g>
         <g id="text_4">
          <path d="M 66.35 97.105 
L 67.9275 97.105 
L 67.9275 108.77 
L 66.35 108.77 
z
" style="stroke:#ffffff;stroke-width:4.0;"/>
          <path d="M 66.35 97.105 
L 67.9275 97.105 
L 67.9275 108.77 
L 66.35 108.77 
z
"/>
         </g>
        </g>
       </g>
       <defs>
        <clipPath id="p62077a2e78">
         <rect height="119.799" width="225.18" x="7.2" y="7.2"/>
        </clipPath>
       </defs>
      </g>
     </g>
    </g>
   </g>
  </g>
 </g>
</svg>
